<?xml version="1.0" encoding="UTF-8"?>
<svg id="Layer_1" data-name="Layer 1" xmlns="http://www.w3.org/2000/svg" viewBox="0 0 174.79 184.53">
  <defs>
    <style>
      .cls-1 {
        fill: #342e2a;
      }

      .cls-1, .cls-2, .cls-3 {
        stroke-width: 0px;
      }

      .cls-2 {
        fill: #fefefe;
      }

      .cls-3 {
        fill: #01a2de;
      }
    </style>
  </defs>
  <path class="cls-2" d="M91.76,1.5c-2.27-1.11-4.8-1.18-7.34-1.37-2.45-.18-4.47.93-5.38,3.35-.58,1.53-.67,3.12-.62,4.73.03,1.09-.37,1.88-1.36,2.28-2.02.82-3.9,2.02-6.06,2.4-5.78,1.01-11.4,2.6-16.94,4.53-3.44,1.2-7.09,1.76-10.29,3.67-11.06,6.62-20.26,15.22-27.68,25.75-1.96,2.79-3.85,5.61-5.5,8.6-5.37,9.72-8.62,20.11-10.05,31.1-1.1,8.47-.39,16.86,1.09,25.19,1.73,9.78,5.24,18.96,10.14,27.59,4.73,8.33,10.36,15.97,17.53,22.4,5.45,4.89,11.39,9.06,17.87,12.5,6.94,3.68,14.23,6.29,21.88,8.08,5.48,1.29,11,1.85,16.57,2.13,5.7.29,11.37-.2,17.01-1.1,3.79-.61,7.47-1.63,11.19-2.51,2.47-.59,4.63-1.97,7.09-2.6,4.41-1.14,8.32-3.47,12.29-5.61,5.56-2.99,10.53-6.84,15.33-10.89,3.65-3.08,6.68-6.78,9.67-10.49,6.91-8.56,12.03-18.05,15.16-28.6.68-2.3,1.16-4.65,1.41-7.04.09-.91.03-1.63-1.23-1.77-4.28-.47-7.04-2.95-8.6-6.87-.97-2.44-.8-4.9-.01-7.35.89-2.77.57-3.22-2.05-4.39-4.65-2.08-8.19-6.27-5.82-12.1.62-1.51,1.08-3.08,1.63-4.63.28-.78.22-1.24-.64-1.78-3.06-1.94-3.93-4.91-3.04-8.47.67-2.7,2.59-4.47,4.25-6.44.64-.76.78-1.33.06-2.2-2.27-2.73-2.22-6.02-.02-8.92.51-.68.9-1.45,1.43-2.11.79-.97.54-1.78-.08-2.74-1.69-2.59-3.83-4.83-5.8-7.19-3.28-3.94-7.08-7.36-11.05-10.59-4.64-3.77-9.47-7.14-15.5-8.44-5.43-1.18-10.86-2.47-16.19-4.04-4.79-1.41-9.72-2.3-14.4-4.01-.95-.35-2.7-.74-1.7-2.62.05-.09-.07-.32-.17-.42-.94-.95-.88-2.18-.9-3.31.08.38-.04.97.68,1.02.96-2.6-1.62-3.64-2.43-5.45-.19-.44-.7-.98-1.28-.74-.79.33.43.87-.14,1.44Z"/>
  <path class="cls-3" d="M91.76,1.5c.57-.57-.65-1.11.14-1.44.59-.25,1.09.3,1.28.74.81,1.81,3.39,2.84,2.43,5.45-.72-.05-.6-.65-.68-1.02.03,1.13-.04,2.35.9,3.31.1.1.22.33.17.42-1,1.88.75,2.27,1.7,2.62,4.69,1.71,9.62,2.6,14.4,4.01,5.33,1.57,10.76,2.86,16.19,4.04,6.03,1.31,10.86,4.67,15.5,8.44,3.97,3.23,7.77,6.65,11.05,10.59,1.97,2.36,4.1,4.6,5.8,7.19.62.96.88,1.76.08,2.74-.53.66-.92,1.43-1.43,2.11-2.2,2.9-2.25,6.18.02,8.92.72.87.58,1.44-.06,2.2-1.67,1.98-3.58,3.74-4.25,6.44-.89,3.55-.02,6.53,3.04,8.47.86.55.92,1,.64,1.78-.55,1.54-1.01,3.11-1.63,4.63-2.37,5.83,1.16,10.01,5.82,12.1,2.62,1.17,2.94,1.62,2.05,4.39-.79,2.46-.96,4.91.01,7.35,1.56,3.91,4.32,6.4,8.6,6.87,1.26.14,1.32.86,1.23,1.77-.25,2.39-.72,4.74-1.41,7.04-3.13,10.55-8.25,20.04-15.16,28.6-3,3.72-6.02,7.41-9.67,10.49-4.8,4.05-9.77,7.9-15.33,10.89-3.98,2.14-7.88,4.47-12.29,5.61-2.46.64-4.62,2.02-7.09,2.6-3.72.88-7.4,1.9-11.19,2.51-5.65.91-11.31,1.39-17.01,1.1-5.57-.28-11.1-.84-16.57-2.13-7.65-1.8-14.94-4.41-21.88-8.08-6.47-3.43-12.42-7.61-17.87-12.5-7.17-6.43-12.8-14.07-17.53-22.4-4.89-8.63-8.4-17.81-10.14-27.59-1.48-8.33-2.19-16.72-1.09-25.19,1.43-11,4.68-21.38,10.05-31.1,1.65-2.99,3.54-5.82,5.5-8.6,7.41-10.53,16.62-19.14,27.68-25.75,3.2-1.91,6.85-2.47,10.29-3.67,5.54-1.93,11.15-3.52,16.94-4.53,2.16-.38,4.04-1.59,6.06-2.4.99-.4,1.4-1.19,1.36-2.28-.05-1.6.04-3.19.62-4.73.91-2.42,2.93-3.54,5.38-3.35,2.54.19,5.07.26,7.34,1.37ZM139.31,105.34c.39-1.59,1.39-2.93,1.72-4.56,1-4.93-1.37-9.11-6.66-9.28-1.26-.04-2.72-.26-3.13-1.92.27-.24.23-.57.27-.89.33-2.74-1.02-4.98-2.36-7.12-1.02-1.62-2.15-3.36-4.13-4.04-1.42-.49-1.67-1.19-.92-2.49,2.98-5.11,2.47-10.29.12-15.43-1.41-3.1-3.19-5.98-5.62-8.43-1.18-1.19-.65-2.9.95-3.11.98-.13.96-.49.6-1.14-.26-.46.02-.81.14-1.21.31-1.06,1.13-1.77,1.75-2.61,4.04-5.45,9.75-7.24,15.71-4.97.49.19,1.09.56,1.59-.09.47-.62.28-1.19-.05-1.78-.9-1.62-2.46-2.45-4-3.27-4.49-2.38-11.86-2.02-15.25,1.07-.7.64-1.17.31-1.73.1-.27-.1-.65-.34-.55-.69.2-.69.89-.39,1.35-.54.96-.31,1.8-.7,1.83-1.91.02-1.11-.72-1.6-1.6-1.94-1.57-.62-3.72-.17-4.59.91-1.24,1.55-.23,2.77.57,4.03.09.14.17.27.27.4.31.41.9.81.41,1.36-.35.4-.95.52-1.47.21-1.23-.75-1.45.16-1.62,1.02-.14.72-.14,1.42-.84,1.96-.96.73-1.96,1.5-2.65,2.47-1.2,1.69-2.3,2.3-4.36,1.11-1.02-.59-1.53-.62-1.09-1.96.58-1.77.16-2.13-1.64-2.06-.97.04-1.9-.01-2.77-.55-1.01-.62-1.48-.08-1.28.88.37,1.7-.49,1.58-1.71,1.51-3.24-.18-6.51-.45-9.73.17-2.43.47-4.86,1-7.33,1.12-2.5.13-5.01.01-7.52-.01-.52,0-1.13.16-1.46-.4-.4-.68.38-.87.63-1.27,1.05-1.67,1.94-4.27.92-5.39-.57-.63-1.22-.86-1.95-.8-.77.05-.56.8-.64,1.28-.3,1.83-1.28,3.11-3,3.82-.79.33-3.53-.34-3.43-.85.24-1.16-.72-1.92-.64-3.03.14-1.84.76-3.53,1.22-5.28.45-1.71.81-2.27,2.05-.55.36.51.88.36,1.16-.15.45-.81.93-1.63,1.23-2.5.24-.71.59-1.71-.32-2.12-.69-.31-1.09-.8-1.57-1.27-1.65-1.61-3.42-1.34-4.56.71-1.54,2.75-2.16,5.76-2.26,8.86-.09,2.84.38,5.56,2.6,7.64.3.29.7.68.4,1.09-.22.29-.68.42-1.15.4-4.26-.15-8.52-.29-12.77-.42-7.04-.2-14.08-.21-21.1.57-2.19.24-2.76.79-2.33,2.83.1.47-.13.88-.51,1.09-.57.33-1,.94-1.79.9-.28-.02-.65.25-.54.62.12.39.47.28.8.21,1.93-.38,3.88-.48,5.84-.46,2.77.03,5.55,0,8.32,0-3.7-1.28-7.52-.62-11.27-1.06.87-.29,1.73-.53,2.61-.55,9.81-.22,19.62-.38,29.42-.61,3.35-.08,6.72.11,10.06-.36,1.1-.16,2.24-.11,3.36-.09.43,0,1.12-.19,1.22.42.08.55-.65.77-1,.86-1.48.35-2.85,1.24-4.46,1.03-1.01-.13-2.06.76-1.8,1.25.75,1.41-.26,1.22-.87,1.17-4.95-.39-9.9.07-14.85-.03-8.42-.17-16.84-.02-25.27.07-1.37.01-2.79.35-3.28,1.94-.19.6-.35.21-.63.14-.66-.17-1.09.31-1.47.73-.22.25-.23.66.03.88.45.4,1.03.33,1.51.1,1.06-.49,2.28-.83,3.23-.33.88.47,1.7.51,2.58.52,2.12.02,4.25,0,6.38-.02,5.26-.02,10.53-.05,15.79-.04.99,0,1.79-.23,2.42-1.1-.78-.4-1.48-.19-2.16-.23-.9-.06-1.99.21-2.67-.19-1.8-1.07-3.72-1.05-5.66-1.11-1.34-.04-2.67,0-4.01,0,0-.16,0-.32,0-.48,9.26-.4,18.52-.68,27.81-.48-.22,1.15-1.38.75-1.72,1.49-.71,1.55-2.24,2.44-3.32,3.65-2.5,2.81-5,5.62-7.2,8.67-.6.83-1.14,1.09-2.11.86-5.36-1.29-8.57,2.6-8.12,6.6.05.47.1,1.14-.49,1.18-1.01.07-2.01.64-3.08-.04-2.51-1.61-5.18-1.45-7.77-.29-5.36,2.4-10.22,5.57-14.36,9.78-3.67,3.74-6.29,8.05-7.12,13.3-.5,3.14-.12,6.2,1.45,8.96,2.37,4.16,8.42,7.36,13.44,5.86,1.09-.33,2.06-.28,2.85.9.64.94,1.51,1.75,2.2,2.69,1.72,2.35,3.96,3.77,7.01,3.54,1.61-.12,2.89.61,3.52,1.98,1.19,2.57,3.25,4.24,5.43,5.84.01.29.03.58.04.87-1.12-.24-1.8-1.09-2.5-1.88-1.44-1.63-2.83-3.3-4.34-5.07,1.23,12.77,9.11,26.97,24.42,32.45.55,1.8,1.7,3.01,3.5,3.6,1.24.4,2.59.3,3.79.95.35.18,1.08.33,1.41-.23.48-.8,1.26-.79,2.01-1.01.97-.29,2.02-.04,2.93-.54,1.3,2.2,3.11,3.92,5.42,4.92,2.64,1.15,5.38,2.01,8.2.24,1.16-.73,1.82-1.99,3.05-2.6.58.52,1.27.98,1.32,1.85.13,2.28,1.38,4.06,2.53,5.92,1.21,1.96,3.92,2.06,5.98,1.3,2.31-.84,3.1-3.39,5.01-4.75,1.84-1.31,3.59-2.71,6.01-2.68,1.5.34,2.78-.2,3.98-1,1.22-.82,2.45-1.69,1.92-3.5,1.2-1.2,2.06-2.55,1.94-4.33,1.46-.2,1.85-1.63,2.78-2.43,4.5-3.86,7.32-8.58,7.43-14.66.03-1.7.79-3.33,1.99-4.19,5.78-4.18,7.43-9.93,6.88-16.65-.05-.64-.19-1.3.14-1.88.98-1.77.05-2.89-1.25-3.91ZM94.57,24.88c0-.91.01-1.81,0-2.72-.02-1.14-.49-1.86-1.76-1.58-1.07.24-2,.47-1.58,2.09.57,2.22.43,4.55.44,6.84,0,.53-.07,1.13-.71,1.29-.75.19-.78-.55-1.07-.94-.25-.34-.49-.68-.73-1.03-1.34-2-3.16.47-4.65-.48-.28-.18-.7.24-.9.54-.38.58-.7,1.19-1.02,1.8-.78,1.47-.96,1.48-1.95.09-1.24-1.74-2-1.93-3.94-1.01-.22.11-.56.19-.75.1-1.22-.59-1.78.21-2.27,1.07-1.16,2.01-.61,5.97,1.02,7.61,1,1,3.81,1.45,4.52.59,1.07-1.32,2.1-2.71,1.98-4.58-.04-.69-.09-1.72.64-1.76.84-.05.44.99.52,1.54.42,2.73,1.95,4.18,4.25,3.95,1.74-.18,3.37-2.09,3.55-4.15.05-.52-.08-1.08.22-1.57.19-.31.35-.72.82-.58.38.11.36.47.39.79.12,1.21-.24,2.42,0,3.64.24,1.16,1.02,1.4,1.98,1.41,1.05,0,1.11-.68,1.05-1.52-.05-.65-.11-1.51.95-.62.52.43.79,0,.85-.46.06-.53-.04-1.01-.41-1.49-.53-.69-.64-1.95-.02-2.14,1.28-.38,1.42-1.72,2.44-2.24.5-.25.82-1.1.43-1.53-.36-.39-.8-1.08-1.51-.93-.65.13-.91.68-.95,1.32-.03.48-.11.96-.09,1.44.04.88-.28.88-1.06.72-.99-.2-1.03-.8-.92-1.52.2-1.32.29-2.65.23-3.98ZM106.58,36.35c-.06-2.25,1.15-2.17,2.82-2.01,2.08.19,3.48-1.47,3.44-3.55-.04-1.67-1.72-3.09-3.66-2.97-2.61.16-3.86,2.01-4.79,4.13-.74,1.68-.18,4.51,1.25,5.68,1.48,1.21,3.3.83,5.01.54.43-.07.89-.45,1.15-.81.27-.38.28-.89-.13-1.31-.3-.3-.72-.54-.96-.2-1.24,1.77-2.74.75-4.12.48ZM124.82,42.9c1.56.14,3.11.32,4.67.41,4.73.26,9.47.44,14.19.75,2.63.17,5.21.04,7.72-.75.37-.12,1.09-.18.95-.82-.1-.47-.64-.47-1.08-.46-.27,0-.53,0-.8,0-8.55-.12-17.1.07-25.66.88ZM164.39,134.11c-2.62,1.93-11.49,14.52-11.36,16.63,5.54-4.42,7.3-11.3,11.36-16.63ZM102.35,37.4c.94-.08,1.9,0,1.12-1.51-.65-1.26-.51-2.67-.15-4.04.18-.67.38-1.33.5-2.01.19-1.08-.27-1.59-1.4-1.54-1.64.07-2,.61-1.54,2.3.1.38-.02.83-.07,1.25-.14,1.16-.34,2.32-.43,3.48-.13,1.65.33,2.09,1.97,2.07ZM16.83,139.88c.14-1.1-.09-1.81-.57-2.4-1.57-1.92-2.01-4.39-3.11-6.54-1.26-2.48-1.88-5.28-2.88-7.91-.36-.95-.34-1.99-.87-2.89-.29-.49-.61-1.07-1.15-.86-.47.18-.22.83-.07,1.27.97,2.82,1.83,5.68,2.95,8.43,1.52,3.72,3.22,7.36,5.71,10.91ZM88.04,8.99c1.25.01,2.14-.25,2.14-1.41,0-1.19-1.06-1.76-1.92-1.68-.9.09-1.6,1.03-1.59,2.05.01.99,1.01.88,1.37,1.03ZM6.6,111.61c-.11,2.1.25,4.11.91,6.07.09.27.18.66.64.53.59-.17.31-.55.23-.89-.49-1.93-.87-3.9-1.78-5.71ZM101.42,25.82c.09.31-.05,1.18.51.89.51-.26,1.64-.1,1.52-1.19-.07-.63-.57-1.1-1.11-1.12-.78-.03-1,.61-.92,1.42ZM153.27,46.19h-4.72c1.57.71,3.14.89,4.72,0Z"/>
  <path class="cls-2" d="M44.74,124.58c-2.18-1.6-4.24-3.26-5.43-5.84-.63-1.38-1.91-2.11-3.52-1.98-3.06.23-5.29-1.19-7.01-3.54-.69-.94-1.57-1.75-2.2-2.69-.8-1.17-1.76-1.23-2.85-.9-5.02,1.5-11.07-1.69-13.44-5.86-1.57-2.76-1.95-5.83-1.45-8.96.83-5.25,3.45-9.56,7.12-13.3,4.14-4.21,9-7.38,14.36-9.78,2.6-1.16,5.27-1.32,7.77.29,1.06.68,2.07.12,3.08.04.6-.04.55-.71.49-1.18-.45-4,2.76-7.89,8.12-6.6.96.23,1.51-.03,2.11-.86,2.21-3.05,4.7-5.85,7.2-8.67,1.08-1.21,2.61-2.1,3.32-3.65.34-.74,1.51-.34,1.72-1.49-9.3-.2-18.56.08-27.81.48,0,.16,0,.32,0,.48,1.34,0,2.67-.03,4.01,0,1.94.05,3.86.04,5.66,1.11.69.41,1.77.13,2.67.19.67.05,1.38-.16,2.16.23-.63.87-1.43,1.1-2.42,1.1-5.26,0-10.53.02-15.79.04-2.13,0-4.25.04-6.38.02-.88,0-1.69-.05-2.58-.52-.95-.5-2.17-.16-3.23.33-.48.22-1.07.29-1.51-.1-.25-.22-.25-.63-.03-.88.38-.43.81-.9,1.47-.73.28.07.44.47.63-.14.5-1.6,1.91-1.93,3.28-1.94,8.42-.09,16.85-.24,25.27-.07,4.95.1,9.9-.36,14.85.03.61.05,1.62.24.87-1.17-.26-.5.79-1.39,1.8-1.25,1.61.21,2.98-.68,4.46-1.03.35-.08,1.09-.31,1-.86-.09-.61-.79-.41-1.22-.42-1.12-.02-2.25-.07-3.36.09-3.34.47-6.71.28-10.06.36-9.81.22-19.61.39-29.42.61-.87.02-1.74.26-2.61.55,3.75.44,7.57-.22,11.27,1.06-2.77,0-5.55.02-8.32,0-1.96-.02-3.91.08-5.84.46-.33.06-.68.18-.8-.21-.11-.38.27-.64.54-.62.79.05,1.22-.57,1.79-.9.38-.22.61-.62.51-1.09-.43-2.04.14-2.59,2.33-2.83,7.02-.77,14.05-.77,21.1-.57,4.26.12,8.52.26,12.77.42.46.02.93-.11,1.15-.4.3-.4-.09-.8-.4-1.09-2.23-2.09-2.7-4.8-2.6-7.64.1-3.1.72-6.11,2.26-8.86,1.14-2.05,2.91-2.32,4.56-.71.48.47.88.96,1.57,1.27.91.41.57,1.41.32,2.12-.3.87-.78,1.69-1.23,2.5-.28.51-.8.66-1.16.15-1.24-1.73-1.59-1.17-2.05.55-.46,1.75-1.08,3.44-1.22,5.28-.08,1.1.88,1.87.64,3.03-.11.5,2.64,1.17,3.43.85,1.71-.71,2.69-1.98,3-3.82.08-.47-.13-1.22.64-1.28.73-.05,1.38.18,1.95.8,1.02,1.12.12,3.72-.92,5.39-.25.41-1.03.59-.63,1.27.33.56.95.39,1.46.4,2.51.02,5.02.14,7.52.01,2.47-.12,4.89-.65,7.33-1.12,3.22-.62,6.49-.35,9.73-.17,1.22.07,2.08.19,1.71-1.51-.21-.95.26-1.5,1.28-.88.87.53,1.8.58,2.77.55,1.8-.07,2.22.29,1.64,2.06-.44,1.35.08,1.37,1.09,1.96,2.06,1.19,3.15.58,4.36-1.11.69-.97,1.69-1.73,2.65-2.47.7-.54.7-1.24.84-1.96.17-.86.39-1.76,1.62-1.02.53.32,1.12.19,1.47-.21.48-.55-.11-.95-.41-1.36-.1-.13-.18-.26-.27-.4-.79-1.26-1.81-2.49-.57-4.03.87-1.08,3.01-1.53,4.59-.91.88.34,1.62.83,1.6,1.94-.03,1.2-.87,1.6-1.83,1.91-.47.15-1.15-.15-1.35.54-.1.36.28.59.55.69.57.22,1.03.54,1.73-.1,3.4-3.09,10.76-3.45,15.25-1.07,1.55.82,3.1,1.64,4,3.27.33.59.52,1.16.05,1.78-.5.65-1.1.28-1.59.09-5.95-2.27-11.67-.48-15.71,4.97-.62.84-1.45,1.55-1.75,2.61-.11.39-.4.74-.14,1.21.36.64.38,1.01-.6,1.14-1.59.21-2.13,1.92-.95,3.11,2.43,2.46,4.2,5.33,5.62,8.43,2.35,5.14,2.86,10.32-.12,15.43-.76,1.3-.5,2,.92,2.49,1.98.68,3.12,2.41,4.13,4.04,1.33,2.14,2.69,4.38,2.36,7.12-.04.32,0,.64-.27.89-1.08-1.56-2.36-2.98-2.99-4.84-.17-.49-.3-1.14-.89-1.42-1.18,1-.7,2.4-.84,3.65-.23-.75-.64-1.39-.12-2.21.89-1.41.67-2.9-.13-4.32-.77-1.37-1.83-2.01-3.51-1.8-2.06.26-3.55-1.59-3.28-3.67.49-3.63-1.76-7.54-6.58-5.9-1.29.44-2.61.27-3.89-.16-.07-.26-.15-.53-.23-.79-1.47-3.97-4.01-5.73-7.95-5.52-.3-2.29.48-4.45.87-6.65.38-2.15,1.22-4.19,2.12-6.19.19-.43.54-1.12-.42-1.16-2.8-.11-5.6-.52-8.07,1.54-.95.79-1.97,1.53-2.92,2.33-1.44,1.23-3.09,2.2-4.42,3.57-.84.86-.63,1.3.47,1.51-.83.32-1.68.58-2.49.96-1.74.81-2.94,2.04-2.91,4.12-1.48.39-1.94,1.72-2.61,2.85-.26.44.2.79.5.78,1.02-.03,2.1.5,3.05-.27.83.93,1.33,2.15,2.49,2.81q3.57,2.04,2.12,5.87c-1.29-.92-2.45-.7-3.8.09-1.48.87-2.11,2.31-3.08,3.66.19-4.32-2.39-6.96-5.69-8.58-1.84-.9-2.1-1.67-2.32-3.49-.3-2.48-2.16-4.36-4.32-5.63-4.09-2.42-7.32-.89-8.21,3.83-.14.74-.48.88-1.08.79-.68-.1-1.35-.32-2.04-.37-1.47-.09-2.67.28-3.33,1.82-1.03,2.42-.22,5.47,1.88,7.07.68.52,1.57,1.02,1.46,2.13-.69.79-1.51.27-2.21.12-2.63-.59-5.32,1.22-4.88,3.79.38,2.22-.17,3.07-2.06,4.22-2.75,1.67-4.76,4.33-6.49,7.1-1.37,2.19-1.35,2.2.96,3.67.16.1.27.3.41.45.97.95,2.98.99,3.11-.03.12-.95.72-2.04.28-2.89-.47-.91-.02-1.27.46-1.74,2.73-2.69,6.08-3.33,9.72-2.87.74.09,1.62.23,1.92,1.18-.63-.09-1.27-.15-1.89-.29-3.16-.72-6.01-.12-8.57,1.88-.37.29-1.01.67-.84,1.08.53,1.25-.4,2.24-.45,3.39-.05,1.1-.58,2.2.9,2.76.08.03.09.29.1.44.06.76.76,1.08,1.24,1.23.59.19.52-.65.74-1.02.35-.59.83-.79,1.47-.76.34.02.67.14.78.46.23.67-.27,1.09-.62,1.54-.15.2-.41.33-.64.46-.3.16-.59.37-.53.72.09.51.57.38.91.39,2.67.13,4.9-1,6.8-2.7,1.4-1.25,1.08-2.55-.58-3.68-.22-.15-.68-.36-.45-.84,3.21.68,4.17,2.35,2.99,5.39-.63,1.64-2.24,2.3-3.64,3.07-.76.42-.94.55-.14,1.1,1.18.81,2.35,1.64,3.7,2.18.45.18.79.28,1.14-.11,1.65-1.85,2.98-3.88,3.27-6.41.13-1.11-.14-1.91-1.31-2.58-2.2-1.26-3.78-3.14-3.81-5.88,0-.68-.31-1.22-.52-1.82,1.18-1.95,2.62-3.64,4.66-4.75.09-.05.23-.08.26-.14.13-.38-.59-.95.19-1.16.68-.18.67.66,1.1.93,1.27.82,2.14.5,2.13-1.02-.03-2.54,2.56-2.43,3.73-3.76.43-.49,1.07.77,1.48,1.41.17.27.66.33.96.54,2.37,1.6,4.27,3.57,4.84,6.49.16.82.13,1.55-.52,2.35-.84,1.04-1.28,2.67-1.21,3.78.06,1.05-.42.93-.81,1.11-1.61.78-3.2,1.55-4.73,2.49-1.42.87-2.25,2.47-3.91,2.99.35-.74.97-1.21,1.57-1.72.24-.21.52-.43.22-.78-.38-.44-3.38-.17-3.55.37-.33,1.04-.8,2.36-.3,3.16.35.57,1.17-.81,1.94-1.04.05-.01.1-.02.16-.02.31.53-.25.62-.47.82-1.59,1.37-2.83,3.03-4.08,4.69-.22.29-.55.59-.33.99.22.4.67.23,1.01.23,1.82-.01,2.73-1.34,3.5-2.66,2.62-4.47,3.3-4.75,8.14-3.03.15.05.3.12.45.18,3.08,1.27,5.4,3.61,2.4,7.36-.03.04-.07.08-.1.13-1.61,2.47-1.15,4.69,1.3,6.32,1.02.68,2.09.81,3.35.81,3.18,0,5.36,4.34,3.73,7.23-.54.95-.66,1.85-.51,2.88.3,2,1.9,2.97,3.25,4.14.61.53.86.47,1.21-.33,1.11-2.52,2.4-4.96,3.74-7.38,1.8-3.25,4.14-6.19,5.4-9.75,1.58-4.41,3.34-8.74,6.71-12.18.41-.42.47-.77.21-1.4-.72-1.7-1.4-3.44-1.75-5.27-.15-.76-.17-1.57.48-2.07.66-.51,1.46-.51,2.27-.15,1.62.72,2.81,2.72,2.89,4.64.03.68-.79,1.56-.1,1.88.73.34,1.32-.68,2-1.06.18-.11.35-.25.53-.35.72-.38,1.34-1.53,2.14-1.02.8.5.69,1.71.69,2.67,0,.21.07.48-.04.63-.74,1.03.1,1.28.76,1.66,1.57.9,2.77,2.24,3.94,3.59.31.36,1.1.78.58,1.44-.46.57-1.2.66-1.91.48-.46-.12-.89-.36-1.33-.53-1.04-.4-1.89-1.2-3.01-1.41-.41-.45-.83-.9-1.24-1.34-.25-.23-.53-.32-.84-.15.03-.14.06-.28.09-.41-.07-.01-.14-.03-.21-.04.05.14.1.29.15.43.27.14.53.33.84.13.12.72.3,1.39,1.24,1.35.58,1.68-.92,2.38-1.55,3.53-.77,1.42-1.76,1.93-3.73,1.14-1.38-.56-2.51-1.55-3.81-2.34-.26.77-.49,1.45-.73,2.14-.74,2.15-2.11,4.02-2.75,6.24-1.31,4.53-2.31,9.16-3.95,13.59-1.1,2.97-2.03,6.08-4.99,7.91-.68.42-.13.84.19,1.14.71.67,1.69.87,2.52,1.32,2.54,1.38,4.64,3.28,5.41,6.1.95,3.5-1.46,7.21-5.35,7.79-2.36.35-3.07,1.17-3.27,3.34-1.23.61-1.89,1.87-3.05,2.6-2.81,1.77-5.55.92-8.2-.24-2.31-1.01-4.12-2.73-5.42-4.92-.17-1.06-.8-1.6-1.74-2.18-.97-.6-2.57-.43-2.87-1.99,1.02.07,1.52,1.23,2.59,1.25-.41-1.47-4.81-4.59-6.24-4.38,1.04,1.34,2.68,1.9,3.69,3.17-.36.3-.6-.17-.92-.13-.32-.39-.61-.85-1.23-.65-.22.07-.33.3-.24.49.25.52.76.43,1.21.45.53.54.91,1.12.11,1.72-.34.26-.82.26-.91-.2-.26-1.41-.86-.84-1.48-.32-.45.37-.94.27-1.34,0-.37-.25-.45-.73-.34-1.16.15-.62.37-1.21.84-1.69.28-.29,1.01-.43.45-1.08-.43-.49-.87-.97-1.62-.65-.49.21-.98.59-1.47.58-1.86-.05-2.07,1.21-2.17,2.57-.04.47.02.95.03,1.43-15.31-5.48-23.2-19.67-24.42-32.45,1.51,1.77,2.91,3.44,4.34,5.07.7.79,1.38,1.64,2.5,1.88-.37,1.7.65,2.91,1.39,4.26,1.62,2.99,3.29,3.72,6.58,2.68.41-.13,1.06-.04,1.17-.63.1-.57-.49-.76-.84-1.06-.89-.75-2.16-1.31-2.63-2.26-1.43-2.89-2.63-3.85-5.71-3.85ZM64.8,119.56c3.57-3.8,6.71-7.33,9.94-10.78,3.01-3.22,2.15-4.77-1.82-5.78-1.27-.32-2.03-.09-2.62,1.02-1.39,2.6-3.32,4.81-5.24,7.01-1.26,1.44-2.54,2.86-3.82,4.29-.34.38-.79.66-1.28.4-.6-.32-.23-.82-.08-1.26.16-.45.32-.91.43-1.37.38-1.61.3-3.22-.54-4.65-.69-1.17-1.88-1.48-3.2-1.31-.61.08-.66-.45-.8-.81-.62-1.55-1.84-1.81-3.27-1.5-1.25.28-2.44.74-3.51,1.48-.48.33-.98.9-1.69.39-.74-.53-.34-1.13-.13-1.72.38-1.08.41-2.2.29-3.32-.23-2.14-1.64-3.37-3.8-3.34-.56,0-.97-.07-1.31-.65-1.01-1.74-1.67-1.95-3.52-1.29-4.46,1.59-7.04,5-8.72,9.18-1.11,2.75-.47,5.24,1.76,7.24,1.96,1.76,4.19,1.96,6.63,1.11,2.23-.78,3.92-2.25,5.53-3.89.5-.51.89-1.28,2.19-1.19-1.69,1.57-2.62,3.26-3.28,5.12-.83,2.37-.88,4.68.98,6.57,1.88,1.91,4.2,2.65,6.88,1.84,2.2-.66,4.1-1.75,5.56-3.57.56-.7,1.23-1.26,2.38-.88-1.36,1.53-2.61,2.97-3.89,4.38-2.95,3.22-2.84,4.09.57,6.89,1.03.85,1.62.57,2.14-.37.51-.92.98-1.84,2.04-2.83-.43,2.81-.72,5.29-1.2,7.73-.58,2.97-.11,5.71,1.4,8.3,1.84,3.15,4.64,3.3,6.89.39,1.19-1.55,1.05-2.46-.75-3.22-2.46-1.04-3.22-3.04-3.51-5.46-.28-2.29.3-4.51.54-6.74.3-2.79.95-3.13,3.75-2.97,2.02.11,4.02.22,5.98-.6,2.61-1.1,3.29-3.33,1.61-5.64-1.77-2.44-1.9-2.43-4.06-.36-1.36,1.3-2.91,2.25-5.42,2.17ZM11.36,97.21c.14,3.75,1.6,7.06,5.15,9.2,1.87,1.13,3.92.79,6,.73,4.24-.12,6.95-2.45,9.01-5.74,1.08-1.73.6-3.42-.78-4.57-1.64-1.37-2.54.14-3.51.93-1.83,1.48-3.83,2.26-6.19,2.1-2.53-.17-4.35-2.84-3.25-5.04.59-1.19,1.13-2.44,2.05-3.47,2.28-2.57,4.79-4.84,7.96-6.25,1.3-.58,1.7-.25,1.4,1.09-.36,1.64.47,2.8,1.51,3.82.74.72,1.49.66,1.98-.45.93-2.09,2.56-3.5,4.63-4.35,1.73-.7,2.36-2.02,2.49-3.73.14-1.91-.42-3.69-1.35-5.3-1.82-3.12-3.19-3.79-6.59-2.54-5.89,2.17-10.75,5.91-14.97,10.56-3.32,3.65-5.29,7.78-5.53,13.01ZM81.93,129.86c-4.11.06-7.46,1.81-9.99,4.91-4.5,5.52-1.55,10.83,3.57,13.09.8.36,1.79.35,2.68.13,1.27-.31,1.99-1.78,1.64-3.21-.34-1.39-1.39-1.02-2.32-.92-.16.02-.31.08-.47.11-1.29.19-2.24-.36-2.62-1.56-.39-1.25.13-2.41,1.15-3.1,1.26-.85,1.28.84,1.99,1.19.04.02.07.08.11.12,1.85,1.59,3.86,2.77,6.4,1.96,2.42-.77,4.2-2.29,4.81-4.86.98-4.11-2.42-7.91-6.95-7.85ZM90.42,151.49c-.08-.83-.07-1.32-.2-1.77-.1-.35-.12-.69.15-.84.29-.16.58.12.8.33.64.6,1.48.87,2.25,1.1,1.48.45,2.96.38,4.11-.89,1.1-1.21,1.43-2.58.76-4.12-1.1-2.55-2.96-4.28-5.67-4.93-2.69-.64-5.51,1.34-6.04,4.08-.26,1.35-.65,2.68-.59,4.09.03.62-.02,1.38-.83,1.53-.81.15-1.28-.49-1.6-1.09-.22-.39-.18-.93-.27-1.39-.09-.49-.2-.91-.84-.97-2.11-.19-4.6,2.66-4.21,4.77.59,3.26,2.91,4.9,5.7,5.87,2.91,1.01,5.54-.52,6.3-3.42.23-.85.14-1.79.17-2.34ZM67.85,96.66c2.08.08,4-.55,5.68-1.68,2.45-1.65,4.35-3.87,3.92-7-.44-3.22-2.46-5.42-5.54-6.63-1.03-.4-1.88-.25-2.62.53-.64.67-.59,1.47-.28,2.24.4,1.02,1.33.7,2.08.69,1.06-.02,1.96.29,2.34,1.3.37,1,.16,1.96-.63,2.79-.53.55-.87.67-1.32-.09-.84-1.41-2.04-2.46-3.56-3.09-3.6-1.48-7.54,1.56-7.03,5.41.43,3.24,3.29,5.52,6.96,5.54ZM78.91,126.84c.04-1.4-3.17-3.77-4.48-3.33-.41.14-.52.51-.71.82-.84,1.31-1.88,2.43-3.02,3.48-1.8,1.65-3.65,3.26-5.34,5.02-1.69,1.75-1.59,2.93.2,4.44.72.61,1.56,1.08,2.38,1.55.74.42,1.3.33,1.49-.66.51-2.69,1.96-4.75,4.19-6.31,1.34-.94,2.63-1.95,3.9-2.99.64-.52,1.39-1.03,1.4-2.01ZM43.33,70.71c-.06.76.09,1.49.34,2.19.22.6.12,1.62,1,1.61,1.28-.01,2.76.61,3.79-.35.62-.58.99-.63,1.55-.26,1.32.9,2.22-.21,3.09-.77.85-.55-.06-1.31-.22-1.98-.15-.62-.45-1.23-.45-1.84.01-1.62-1.12-2-2.33-2.24-.85-.17-1.74-.17-2.62-.2-2.61-.09-4.06,1.26-4.15,3.84ZM39.64,91.35c1.99-3.64,4.2-6.89,7.38-9.23,1.43-1.05,2.26-2.08,2.28-3.88.01-1.2-.38-1.85-1.54-1.6-1.49.32-2.94.82-4.41,1.21-.91.24-1.05.7-.86,1.62.59,2.78-.09,5.23-2.24,7.22-1.44,1.32-1.59,2.44-.62,4.66ZM84.2,120.9c0-1.56-1.13-2.54-3.01-2.56-2.08-.02-3.88,1.68-3.84,3.63.03,1.5,1.29,2.87,2.65,2.89,2.19.03,4.18-1.85,4.2-3.96ZM116.87,67.33c0-.87-.92-3.8-1.33-4.35-.19-.25-.38-.56-.73-.54-.5.02-.5.46-.59.81-.34,1.33-.58,2.67-.58,4.05,0,1.18.86,1.26,1.63,1.21.77-.05,1.85.01,1.61-1.18ZM36.23,43.2c-2.94-.14-5.88-.5-8.8.04,2.94.61,5.87.1,8.8-.04ZM118.24,31.59c.02-.65-.33-.94-.87-.9-.61.04-1.17.29-1.08,1.05.06.5.12,1.2.79,1.14.66-.07.99-.69,1.16-1.28ZM111.89,101.89h.03s0-.12,0-.12l-.04.12Z"/>
  <path class="cls-1" d="M67.55,100.25c1.66-.51,2.49-2.12,3.91-2.99,1.53-.94,3.13-1.71,4.73-2.49.39-.19.87-.06.81-1.11-.06-1.11.37-2.74,1.21-3.78.65-.8.68-1.53.52-2.35-.57-2.92-2.46-4.9-4.84-6.49-.31-.21-.79-.27-.96-.54-.41-.65-1.05-1.91-1.48-1.41-1.17,1.33-3.76,1.22-3.73,3.76.02,1.52-.86,1.84-2.13,1.02-.42-.27-.41-1.11-1.1-.93-.78.21-.06.78-.19,1.16-.02.07-.17.1-.26.14-2.04,1.1-3.48,2.8-4.66,4.75,0,0-.06-.01-.06-.01-.3-.95-1.18-1.08-1.92-1.18-3.64-.46-7,.18-9.72,2.87-.48.47-.93.83-.46,1.74.44.85-.16,1.94-.28,2.89-.13,1.02-2.14.99-3.11.03-.14-.14-.25-.34-.41-.45-2.3-1.47-2.33-1.48-.96-3.67,1.73-2.76,3.74-5.43,6.49-7.1,1.89-1.15,2.44-2,2.06-4.22-.44-2.57,2.26-4.38,4.88-3.79.7.16,1.52.68,2.21-.11.26-1.59-.38-2.84-1.48-3.95-.37-.37-.71-.83-.91-1.3-.52-1.25-.89-2.58.13-3.75.95-1.09,2.17-1.05,3.51-.72,1.05.25,1.74,1.25,2.95,1.25,0-1.1-.03-2.16,0-3.22.08-2.31,1.48-3.61,3.79-3.57,2.76.04,6.29,3.29,6.58,6.05.17,1.57-1.06,2.81-3.12,3.37-2.13.59-1.03-1.23-1.45-1.88-.27-.42-.54-.77-.96-1-.37-.21-.65-.16-.96.2-.76.88-.67,3.15.21,4.03,1.05.46,1.45,1.86,2.77,1.93.03.1.03.25.09.28,2.13,1.06,4.34,2.02,5.52,4.31.14.27.42.25.69.08.99-.62,1.29-2.61.57-3.54-.61-.79-1.44-.79-2.3-.8-1.69-.01-2.08-.41-1.93-1.91.12-1.15,1.21-1.96,2.36-1.74,3.17.59,6.37,4.29,6.44,7.49.02.85-.1,1.66,1.2,1.15.4-.15.82.17.82.55-.02,1.04.81,1.35,1.43,1.8,1.55,1.12,2.76,2.39,2.73,4.48-.01.92.14.99,1.07.86-.13.95,0,1.83.49,2.7.33.58.77,1.38.6,1.89-.56,1.66.41,1.03,1.11.88,1.32-.38,2.5-1.23,2.21-2.59-.42-1.97.02-3.62.85-5.3,2.33-2.05,2.06-3.93-.69-4.96-.54-.46-1.2-.18-1.79-.31-.82-.77-1.49-1.64-1.81-2.75h.02c-.1-.1-.19-.19-.29-.29.02-.34.03-.69.05-1.03q1.45-3.82-2.11-5.87c-1.16-.66-1.66-1.87-2.49-2.81-.52-1.06-.82-2.18-.95-3.35-.04-2.08,1.17-3.31,2.91-4.12.8-.37,1.66-.64,2.49-.96.73,0,1.48-.18,2.12.37,1.16,1,2.49,1.16,3.99,1,2.19-.23,2.85.3,3.45,2.33.67,2.28.79,2.34,2.81,1.33,3.95-.21,6.48,1.55,7.95,5.51-.82.46-1.16-.59-1.83-.59-.03-.14-.07-.29-.1-.43-.04.03-.13.07-.12.07.06.13.14.25.21.38.41.88,1.05,1.42,2.07,1.36,1.28.43,2.6.6,3.89.16,4.82-1.64,7.07,2.27,6.58,5.9-.28,2.08,1.22,3.93,3.28,3.67,1.68-.21,2.74.42,3.51,1.8.8,1.42,1.02,2.91.13,4.32-.52.83-.12,1.46.12,2.21.15-1.25-.33-2.64.84-3.65.59.28.72.92.89,1.42.63,1.86,1.91,3.28,2.99,4.84.41,1.66,1.86,1.88,3.13,1.92,5.29.17,7.66,4.34,6.66,9.28-.33,1.64-1.34,2.97-1.72,4.56,0,0-.03.05-.03.05-.15.02-.27.05-.15.23-2.12,1.06-1.86,2.86-1.33,4.63,1.34,4.43-.03,8.34-2.18,12.12-.13.23-.31.46-.62.37-.34-.09-.3-.41-.28-.66.24-3.14-1.36-6.22-.34-9.4.12-.39.18-.92-.21-1.4-.63.95.14,2.29-1.11,3.16-.73-2.14-2.8-3.11-3.95-4.87,1.63-.66,3.14-1.53,4.51-2.62,2.91-2.32,5.15-5.04,5-9.05-.1-2.51-2.12-4.49-4.61-4.5-1.21,0-2.42-.14-3.57.57-.57.36-1.15.22-.95-.77.43-2.04-1.18-4-3.04-4.29-.65-.1-.76-.07-.95.46-1.03,2.91-2.72,5.77-.64,8.97.61-1.31,1.81-1.45,2.7-.66,1.26,1.11,2.14,1.17,3.42.06.93-.82,2.3-.61,3.34-.21.96.37.53,1.52.47,2.32-.09,1.33-3.59,4.61-4.88,4.73-1.08.1-1.02-.8-1.16-1.38-.47-1.86-.66-1.9-2.18-.73-.75.57-.96,2.14-2.45,1.49-.12,1.15-.24,2.3-.37,3.45-.69,1.64-2.29,2.1-3.77,2.94,6.01-.31,10.15,2.18,12,7.86,1.13,3.47-.32,9.31-2.57,11.41-.66-1.32-.98-2.81-1.92-3.99-1.1-1.38-2.48-2.42-2.49-4.58-.01-1.72-2.15-2.61-4.35-1.96-1.31.38-1.44-.2-1.63-1.12-.22-1.11-.38-2.24-.98-3.25.31,2.55.84,5.06.99,7.63-.34,1.55-.14,3.14-.29,4.71-.43.81-.14,1.72-.32,2.56-.71,3.37-1.86,6.59-3.37,9.69-.05.67-1.31,1.03-.51,1.93-.05,1.6.84,2.48,2.33,2.62,1.23.12,2.15.67,2.99,1.48.73,1.02.79,2.29,1.31,3.39l.02.08c.07.08.12.16.15.26.12,1.79-.73,3.14-1.94,4.33-1.47.66-2.57,1.65-3.39,3.09-.48.84-1.44,1.36-2.51,1.41-2.42-.03-4.17,1.37-6.01,2.68-1.91,1.36-2.7,3.91-5.01,4.75-2.06.75-4.77.65-5.98-1.3-1.15-1.86-2.4-3.63-2.53-5.92-.05-.87-.74-1.34-1.32-1.85.2-2.17.91-2.99,3.27-3.34,3.9-.59,6.3-4.29,5.35-7.79-.77-2.82-2.87-4.72-5.41-6.1-.83-.45-1.81-.65-2.52-1.32-.32-.3-.87-.72-.19-1.14,2.95-1.83,3.89-4.95,4.99-7.91,1.64-4.43,2.63-9.06,3.95-13.59.64-2.21,2.01-4.08,2.75-6.24.24-.69.47-1.37.73-2.14,1.3.79,2.43,1.78,3.81,2.34,1.96.8,2.95.29,3.73-1.14.63-1.15,2.13-1.85,1.55-3.53l-.03.03c1.12.21,1.97,1.01,3.01,1.41.45.17.87.41,1.33.53.71.18,1.45.09,1.91-.48.53-.66-.26-1.08-.58-1.44-1.17-1.34-2.37-2.68-3.94-3.59-.66-.38-1.51-.62-.76-1.66.1-.14.04-.41.04-.63,0-.96.1-2.16-.69-2.67-.81-.51-1.42.65-2.14,1.02-.19.1-.35.25-.53.35-.67.39-1.27,1.4-2,1.06-.68-.32.13-1.2.1-1.88-.08-1.92-1.27-3.92-2.89-4.64-.81-.36-1.61-.36-2.27.15-.64.5-.62,1.31-.48,2.07.36,1.83,1.04,3.56,1.75,5.27.26.62.21.97-.21,1.4-3.37,3.43-5.14,7.76-6.71,12.18-1.27,3.55-3.6,6.5-5.4,9.75-1.34,2.42-2.62,4.86-3.74,7.38-.35.8-.6.86-1.21.33-1.35-1.17-2.95-2.14-3.25-4.14-.16-1.02-.03-1.93.51-2.88,1.63-2.88-.56-7.22-3.73-7.23-1.27,0-2.33-.13-3.35-.81-2.45-1.63-2.91-3.85-1.3-6.32.03-.04.06-.09.1-.13,3-3.75.68-6.1-2.4-7.36-.15-.06-.29-.12-.45-.18-4.85-1.72-5.53-1.44-8.14,3.03-.78,1.33-1.68,2.65-3.5,2.66-.34,0-.79.17-1.01-.23-.22-.4.11-.7.33-.99,1.25-1.66,2.49-3.32,4.08-4.69.22-.19.78-.28.47-.82l-.03.03ZM59.87,69.82h.04c-.68.81.15,1.36.54,1.33.77-.06,1.83-.04,1.94-1.29.08-.94-.35-.94-1.01-.59-.25.02-.49.04-.74.06-.36,0-.61.18-.77.48ZM122.83,83.69c.31-.37.9-.57.83-1.17-.04-.33-.32-.57-.68-.53-1.14.13-2.35-.08-3.36.68-1.09-.17-1.86.97-2.97.72-.06.3-.12.61-.17.91.13,1.05.32,2.11-.64,2.94-.6.51-.15,1.11.02,1.62.52,1.56.73,3.09-.03,4.65-.37.75-.38,1.57.05,2.3.48.83.59,1.76.47,2.63-.22,1.56.66,2.17,2.09,2.74-.27-1.47.78-2.75-.2-4.19-.37-.55-.07-1.46.34-2.25.7-1.32,2.16-1.84,2.88-3.09.46-.8.91-1.6-.29-2.18-.15-.09-.31-.17-.46-.26.01-.48.34-.84.67-1.01,1.8-.92,1.48-2.33.98-3.81.15-.24.89-.08.49-.7ZM110.46,154.34c.53-.19.9.23,1.34.38.69.23,1.37.25,2-.13.36-.22.5-.55.28-.96-.16-.29-.41-.36-.65-.15-.82.72-1.66.4-2.55.17-1.56-.4-.72-1.45-.68-2.29.02-.44-.08-.91-.65-.91-.67,0-.79.41-.57.98.09.23.04.4-.36.5-.67-.52-.98-1.39-1.45-2.13-.4-.65-.91-.27-1.24-.07-.39.23-.1.54.12.89.55.88,1.48,1.57,1.67,2.75-2.34-.25-2.37-.26-2.7,1.88-.1.66-.43.44-.77.38-1.36-.21-2.09.67-2.11,2.01-.02,1.13-.62,2.21-.71,3.39-.03.42-.52.55-.9.47-1.28-.27-1.45-1.42-1.82-2.39-.46-1.21.99-.42,1.1-1.12-.14-.35-.37-.77-.47-1.21-.22-.91-.86-1.01-1.59-.86-.72.15-1.36.52-1.22,1.4.3,1.81.77,3.56,2.31,4.77,1.07.85,2.36.91,3.47.33.91-.48.93-1.58.75-2.57-.04-.21-.07-.4.1-.51.52.02,1.01.14,1.47.05,1.27-.25.74-1.77,1.31-2.18.61-.43,2.04.32,2.3-.95.21-1.02.28-1.52,1.48-.97.57.26.52-.58.74-.93h0ZM111.59,83.14c-2.05,1.7-4.21,3.23-6.72,4.17-.85.32-1.95.87-2.69.01-.75-.87.04-1.79.49-2.61.28-.51.63-.98.99-1.44,2.03-2.64,4.95-3.91,7.9-5.16,1.42-.6,2.89-1.11,4.08-2.14,1.07-.93,1.55-2.07.82-3.41-.67-1.21-1.79-.93-2.83-.61-.88.27-1.81.53-2.67.36-3.55-.71-6.96-.7-10.11,1.39-.12.08-.31.09-.47.1-.54.03-1.28.58-1.57-.14-.33-.81.54-1.15,1.08-1.54.16-.12.43-.07.6-.18,1.12-.73,2.47-1.14,3.15-2.47.68-1.33.57-1.66-.91-1.87-2.9-.41-5.8-.81-8.6-1.71-1.42-.46-1.52-.82-.51-1.95.58-.65,1.19-1.28,2.03-2.2-2,.21-3.41,1.02-4.93,1.43-1.96.53-2.42.09-1.94-1.93.05-.22.14-.39-.19-.54-.61.31-1.28.62-1.91.99-.61.36-1.09,1.22-.68,1.58.96.86,1.5,2.02,2.38,2.86.68.65,1.81.84,2.82,1,2.52.4,5.06.64,7.62.74.39.02.93-.14,1.04.44.09.47-.4.58-.68.79-2.29,1.74-4.59,3.46-6.88,5.2-.3.23-.86.37-.65.95.21.58.72.54,1.21.49,1.06-.1,2.13-.17,3.18-.34,5.73-.9,11.45-1.84,17.18-2.72.5-.08,1.3-.55,1.51.23.19.7-.7.64-1.13.83-6.94,3.06-13.08,7.27-18.41,12.67-.97.99-.87,1.54.39,2.03.44.17.93.22,1.41.26,4.46.36,8.63-.64,12.7-2.47,1.56-.7,1.75-1.75,1.87-3.09,1.35-.49.88.59.87,1.36,1.94-1.43,3.58-2.84,4.68-4.82-1.5.91-3.18,1.6-4.25,3.02-.44.59-.77.54-1.28.44ZM112.4,151.07c-.69-.11-.45-1.27-1.22-.87-.85.44-.11.97.08,1.46.08.2.17.39.26.58.4.89.81.74,1.77.55,1.5-.3,2.45-1.61,3.99-1.65.69-.02,1.22-.48,1.36-1.17.14-.72-.32-1.04-.99-1.18-.82-.16-.38-.49-.09-.82.26-.31.36-.67.03-1-.32-.31-.68-.21-1.04-.07-.94.34-1.08,1.19-1.22,2.28-.61-.75-1.17-1.14-1.9-.77-1.12.56-1,1.64-1.01,2.66ZM119.52,96.41c-.08,1.13-.17,2.12-.22,3.11-.01.23-.14.59.25.63.59.07,1.17-.13,1.62-.47.41-.31.68-.79.43-1.39-.37-.86-.96-1.49-2.07-1.88ZM78,93.91c1.5-.4,2.99-.81,4.49-1.21-1.49-.32-3.03.13-4.49,1.21ZM111.38,149.09c-.06-.31-.19-.59-.55-.66-.41-.07-.56.27-.62.57-.08.37.18.6.52.66.39.07.55-.21.65-.57ZM104.37,64.51c-1.23.01-2.43-.62-3.71-.38,1.18.5,2.43.51,3.71.38Z"/>
  <path class="cls-2" d="M119.03,122.34c-.15-2.56-.68-5.07-.99-7.63.6,1.01.76,2.14.98,3.25.18.92.32,1.51,1.63,1.12,2.2-.65,4.34.24,4.35,1.96.02,2.16,1.39,3.2,2.49,4.58.93,1.17,1.26,2.66,1.92,3.99,2.25-2.1,3.7-7.94,2.57-11.41-1.86-5.69-5.99-8.18-12-7.86,1.48-.84,3.09-1.3,3.77-2.94,1.81.66,3.67,1.21,5.36,2.17,1.15,1.77,3.22,2.73,3.95,4.87,1.25-.87.48-2.21,1.11-3.16.4.48.34,1.02.21,1.4-1.02,3.18.58,6.26.34,9.4-.02.25-.06.57.28.66.31.08.48-.14.62-.37,2.15-3.78,3.52-7.69,2.18-12.12-.53-1.77-.79-3.57,1.33-4.63.22.04.19-.1.15-.24,0,0,.03-.05.03-.05,1.3,1.02,2.23,2.14,1.25,3.91-.32.58-.19,1.25-.14,1.88.55,6.72-1.11,12.47-6.88,16.65-1.2.87-1.95,2.5-1.99,4.19-.12,6.08-2.94,10.8-7.43,14.66-.93.8-1.32,2.23-2.78,2.43-.03-.1-.08-.18-.15-.26,0,0,.06-.06.06-.06l-.08-.02c-.52-1.1-.58-2.37-1.31-3.39.53.17.94.09,1.44-.29,3.32-2.5,5.55-5.7,6.69-9.7,1.41-4.96-.64-10.74-5.9-12.56-.75-.26-1.49-.25-2.18-.12-1.08.2-.25,1.3-.67,1.93-.07-.79-.14-1.52-.21-2.25Z"/>
  <path class="cls-2" d="M94.57,24.88c.05,1.34-.03,2.66-.23,3.98-.11.71-.07,1.31.92,1.52.77.16,1.1.15,1.06-.72-.02-.48.05-.96.09-1.44.04-.64.3-1.19.95-1.32.71-.15,1.15.54,1.51.93.39.43.07,1.27-.43,1.53-1.03.52-1.16,1.86-2.44,2.24-.62.19-.51,1.45.02,2.14.36.47.47.96.41,1.49-.05.47-.32.89-.85.46-1.07-.88-1.01-.03-.95.62.07.84,0,1.52-1.05,1.52-.96,0-1.75-.25-1.98-1.41-.25-1.23.11-2.43,0-3.64-.03-.32-.01-.68-.39-.79-.48-.14-.63.26-.82.58-.29.49-.17,1.04-.22,1.57-.18,2.07-1.81,3.98-3.55,4.15-2.3.23-3.84-1.22-4.25-3.95-.08-.55.32-1.59-.52-1.54-.73.04-.69,1.07-.64,1.76.12,1.87-.9,3.26-1.98,4.58-.71.86-3.52.42-4.52-.59-1.63-1.64-2.19-5.6-1.02-7.61.49-.85,1.05-1.66,2.27-1.07.19.09.53,0,.75-.1,1.94-.92,2.71-.73,3.94,1.01.99,1.39,1.17,1.38,1.95-.09.32-.61.65-1.22,1.02-1.8.2-.31.62-.72.9-.54,1.49.95,3.31-1.52,4.65.48.24.35.48.69.73,1.03.29.39.31,1.14,1.07.94.64-.17.71-.76.71-1.29-.01-2.29.13-4.62-.44-6.84-.42-1.62.51-1.85,1.58-2.09,1.27-.28,1.74.44,1.76,1.58.02.91,0,1.81,0,2.72ZM78.91,35.53c.02-1.55-1.34-1.55-2.2-1.92-.65-.28-.63.49-.61.96.05,1.19-.19,2.74,1.36,2.99,1.28.21,1.14-1.23,1.46-2.03ZM85.19,33.92c.13,1.07-.14,2.46,1.33,2.54,1.29.07,1.17-1.29,1.34-2.15.14-.72-1.34-2.07-2.09-1.91-.91.19-.34,1.05-.58,1.52Z"/>
  <path class="cls-2" d="M106.58,36.35c1.38.27,2.88,1.29,4.12-.48.24-.34.66-.1.96.2.41.42.41.93.13,1.31-.27.37-.73.74-1.15.81-1.71.29-3.53.67-5.01-.54-1.43-1.17-1.98-4.01-1.25-5.68.93-2.12,2.18-3.97,4.79-4.13,1.95-.12,3.63,1.3,3.66,2.97.04,2.07-1.36,3.73-3.44,3.55-1.67-.15-2.88-.24-2.82,2.01ZM108.03,32.98c.83,0,2.15-1.26,2.11-2.05-.02-.46-.21-.94-.73-.82-1.16.28-1.6,1.27-1.91,2.3-.1.35.1.61.53.57Z"/>
  <path class="cls-1" d="M62.37,150.94c-.01-.48-.07-.96-.03-1.43.11-1.36.31-2.62,2.17-2.57.48.01.98-.37,1.47-.58.76-.32,1.2.16,1.62.65.56.65-.17.79-.45,1.08-.47.48-.69,1.07-.84,1.69-.11.43-.03.91.34,1.16.4.26.89.36,1.34,0,.62-.51,1.22-1.09,1.48.32.08.46.57.46.91.2.8-.61.42-1.18-.11-1.72.09-.1.17-.2.26-.29.32-.04.56.43.92.13l-.04-.04c.3,1.56,1.9,1.39,2.87,1.99.94.58,1.57,1.11,1.74,2.18-.91.51-1.96.25-2.93.54-.75.23-1.53.21-2.01,1.01-.33.56-1.06.41-1.41.23-1.2-.64-2.55-.54-3.79-.95-1.81-.59-2.95-1.8-3.5-3.6Z"/>
  <path class="cls-2" d="M124.82,42.9c8.56-.81,17.11-1,25.66-.88.27,0,.53.01.8,0,.44-.01.98,0,1.08.46.14.65-.58.71-.95.82-2.51.79-5.09.93-7.72.75-4.73-.31-9.46-.49-14.19-.75-1.56-.09-3.12-.27-4.67-.41Z"/>
  <path class="cls-1" d="M44.74,124.58c3.08,0,4.28.97,5.71,3.85.47.95,1.74,1.51,2.63,2.26.35.3.94.49.84,1.06-.1.59-.76.5-1.17.63-3.29,1.05-4.97.31-6.58-2.68-.73-1.35-1.76-2.57-1.39-4.26-.01-.29-.03-.58-.04-.87Z"/>
  <path class="cls-2" d="M164.39,134.11c-4.06,5.33-5.82,12.21-11.36,16.63-.13-2.11,8.73-14.7,11.36-16.63Z"/>
  <path class="cls-2" d="M102.35,37.4c-1.65.02-2.1-.42-1.97-2.07.09-1.17.29-2.32.43-3.48.05-.42.17-.87.07-1.25-.46-1.69-.1-2.23,1.54-2.3,1.12-.05,1.59.46,1.4,1.54-.12.68-.32,1.34-.5,2.01-.36,1.36-.51,2.78.15,4.04.78,1.51-.18,1.43-1.12,1.51Z"/>
  <path class="cls-2" d="M16.83,139.88c-2.48-3.55-4.19-7.19-5.71-10.91-1.13-2.75-1.98-5.61-2.95-8.43-.15-.43-.4-1.08.07-1.27.54-.21.86.36,1.15.86.53.9.51,1.94.87,2.89,1,2.62,1.62,5.43,2.88,7.91,1.1,2.16,1.54,4.62,3.11,6.54.48.59.71,1.3.57,2.4Z"/>
  <path class="cls-2" d="M113.51,157.9c1.07-.06,2.03-.57,2.51-1.41.82-1.44,1.92-2.43,3.39-3.09.53,1.81-.7,2.67-1.92,3.5-1.19.8-2.48,1.35-3.98,1Z"/>
  <path class="cls-2" d="M88.04,8.99c-.36-.15-1.36-.04-1.37-1.03-.01-1.02.69-1.97,1.59-2.05.86-.08,1.91.49,1.92,1.68,0,1.15-.89,1.42-2.14,1.41Z"/>
  <path class="cls-2" d="M6.6,111.61c.91,1.81,1.29,3.77,1.78,5.71.09.34.36.73-.23.89-.46.13-.55-.26-.64-.53-.66-1.96-1.03-3.97-.91-6.07Z"/>
  <path class="cls-2" d="M101.42,25.82c-.08-.81.14-1.45.92-1.42.54.02,1.04.5,1.11,1.12.12,1.09-1.01.93-1.52,1.19-.56.29-.42-.59-.51-.89Z"/>
  <path class="cls-2" d="M153.27,46.19c-1.58.89-3.15.71-4.72,0h4.72Z"/>
  <path class="cls-3" d="M64.8,119.56c2.51.08,4.06-.87,5.42-2.17,2.16-2.07,2.29-2.08,4.06.36,1.68,2.32.99,4.54-1.61,5.64-1.96.83-3.96.71-5.98.6-2.8-.16-3.45.18-3.75,2.97-.24,2.23-.82,4.44-.54,6.74.29,2.41,1.05,4.41,3.51,5.46,1.79.76,1.94,1.67.75,3.22-2.24,2.91-5.05,2.76-6.89-.39-1.51-2.59-1.97-5.33-1.4-8.3.48-2.44.77-4.91,1.2-7.73-1.06.98-1.54,1.91-2.04,2.83-.52.94-1.11,1.22-2.14.37-3.41-2.8-3.52-3.67-.57-6.89,1.29-1.41,2.54-2.85,3.89-4.38-1.15-.38-1.83.18-2.38.88-1.46,1.82-3.36,2.91-5.56,3.57-2.68.81-5,.07-6.88-1.84-1.85-1.89-1.81-4.2-.98-6.57.66-1.86,1.59-3.55,3.28-5.12-1.3-.09-1.69.68-2.19,1.19-1.61,1.64-3.3,3.12-5.53,3.89-2.44.85-4.67.65-6.63-1.11-2.23-2-2.87-4.5-1.76-7.24,1.68-4.18,4.27-7.6,8.72-9.18,1.85-.66,2.51-.44,3.52,1.29.34.58.74.66,1.31.65,2.17-.03,3.57,1.2,3.8,3.34.12,1.12.09,2.23-.29,3.32-.2.58-.61,1.19.13,1.72.72.51,1.22-.06,1.69-.39,1.08-.74,2.26-1.2,3.51-1.48,1.43-.32,2.65-.05,3.27,1.5.15.37.2.89.8.81,1.32-.17,2.51.13,3.2,1.31.85,1.43.92,3.04.54,4.65-.11.47-.27.92-.43,1.37-.15.44-.51.93.08,1.26.48.26.94-.02,1.28-.4,1.28-1.42,2.56-2.84,3.82-4.29,1.93-2.2,3.85-4.41,5.24-7.01.59-1.11,1.35-1.34,2.62-1.02,3.96,1.01,4.83,2.57,1.82,5.78-3.23,3.44-6.36,6.98-9.94,10.78ZM51.19,112.23c-1.69,1.19-2.92,2.55-3.71,4.28-.27.59-.45,1.24.1,1.78.54.52,1.17.36,1.79.12,1.01-.4,1.81-1.1,2.5-1.91.31-.36.6-.79.28-1.29-.55-.87-.61-1.9-.97-2.97ZM38.12,103.81c-1.2.79-1.69,2.02-2.49,2.99-.81.98-1.69,2.24-.65,3.22,1.19,1.12,2.35-.14,3.25-.97.65-.59,1.56-1.2,1.01-2.4-.42-.9-.73-1.85-1.12-2.84Z"/>
  <path class="cls-3" d="M11.36,97.21c.25-5.22,2.21-9.36,5.53-13.01,4.22-4.65,9.08-8.39,14.97-10.56,3.4-1.25,4.77-.58,6.59,2.54.93,1.6,1.49,3.38,1.35,5.3-.12,1.7-.76,3.02-2.49,3.73-2.08.84-3.71,2.26-4.63,4.35-.49,1.11-1.25,1.17-1.98.45-1.04-1.02-1.87-2.18-1.51-3.82.29-1.33-.1-1.67-1.4-1.09-3.17,1.41-5.68,3.68-7.96,6.25-.92,1.03-1.46,2.29-2.05,3.47-1.09,2.19.72,4.87,3.25,5.04,2.36.16,4.36-.61,6.19-2.1.97-.79,1.87-2.31,3.51-.93,1.38,1.16,1.86,2.85.78,4.57-2.06,3.29-4.77,5.63-9.01,5.74-2.08.06-4.13.4-6-.73-3.55-2.14-5.01-5.46-5.15-9.2Z"/>
  <path class="cls-3" d="M81.93,129.86c4.54-.07,7.93,3.74,6.95,7.85-.61,2.57-2.39,4.09-4.81,4.86-2.55.81-4.55-.36-6.4-1.96-.04-.03-.06-.1-.11-.12-.71-.34-.73-2.04-1.99-1.19-1.02.69-1.54,1.85-1.15,3.1.37,1.2,1.32,1.74,2.62,1.56.16-.02.31-.09.47-.11.93-.1,1.98-.47,2.32.92.35,1.43-.37,2.89-1.64,3.21-.9.22-1.88.23-2.68-.13-5.12-2.26-8.06-7.57-3.57-13.09,2.53-3.1,5.88-4.85,9.99-4.91ZM82.33,135.19c-1.32.14-2.64.47-3.63,1.53-.21.22.09.51.32.62,1.34.62,2.61.52,3.89-.25.56-.34,1-.73.85-1.36-.16-.7-.86-.42-1.43-.54Z"/>
  <path class="cls-3" d="M90.42,151.49c-.03.55.06,1.49-.17,2.34-.77,2.9-3.39,4.43-6.3,3.42-2.79-.97-5.11-2.61-5.7-5.87-.38-2.1,2.1-4.96,4.21-4.77.64.06.76.48.84.97.09.47.05,1,.27,1.39.33.6.79,1.24,1.6,1.09.81-.15.86-.91.83-1.53-.06-1.41.33-2.73.59-4.09.52-2.74,3.35-4.72,6.04-4.08,2.72.65,4.57,2.37,5.67,4.93.66,1.54.34,2.91-.76,4.12-1.15,1.27-2.64,1.34-4.11.89-.78-.24-1.62-.5-2.25-1.1-.22-.21-.51-.49-.8-.33-.28.15-.25.49-.15.84.13.45.11.95.2,1.77ZM91.89,144.31c-.95-.02-1.73.96-1.74,2.14,0,.38-.19.89.5.93.82.05,2.76-1.14,2.71-1.71-.08-.93-.85-1.1-1.47-1.36Z"/>
  <path class="cls-3" d="M59.34,88.98s.06.01.06.01c.21.59.51,1.14.52,1.82.03,2.75,1.62,4.62,3.81,5.88,1.17.67,1.44,1.47,1.31,2.58-.29,2.53-1.62,4.56-3.27,6.41-.34.39-.69.29-1.14.11-1.35-.54-2.51-1.37-3.7-2.18-.8-.55-.62-.68.14-1.1,1.4-.77,3-1.43,3.64-3.07,1.17-3.04.22-4.71-2.99-5.39-.23.48.23.69.45.84,1.66,1.13,1.98,2.42.58,3.68-1.9,1.7-4.13,2.83-6.8,2.7-.35-.02-.82.12-.91-.39-.06-.34.23-.56.53-.72.23-.13.49-.26.64-.46.34-.45.85-.88.62-1.54-.11-.32-.44-.44-.78-.46-.63-.03-1.12.17-1.47.76-.22.37-.16,1.21-.74,1.02-.48-.16-1.18-.47-1.24-1.23-.01-.15-.02-.41-.1-.44-1.48-.56-.95-1.67-.9-2.76.05-1.14.98-2.13.45-3.39-.17-.41.47-.79.84-1.08,2.55-1.99,5.41-2.6,8.57-1.88.62.14,1.26.2,1.89.29Z"/>
  <path class="cls-1" d="M67.85,96.66c-3.67-.02-6.53-2.3-6.96-5.55-.51-3.85,3.43-6.89,7.03-5.41,1.52.63,2.72,1.68,3.56,3.09.45.76.79.65,1.32.09.79-.82,1-1.79.63-2.79-.37-1.02-1.27-1.32-2.34-1.3-.75.01-1.68.34-2.08-.69-.3-.78-.35-1.58.28-2.24.74-.78,1.59-.93,2.62-.53,3.07,1.2,5.1,3.41,5.54,6.63.43,3.13-1.48,5.35-3.92,7-1.68,1.14-3.6,1.76-5.68,1.69ZM66.89,92.03c1.07-.29,2.59-.02,2.86-1.26.14-.67-1.31-.95-2.12-.97-.94-.02-2.1.19-2.26,1.32-.15,1.05.99.62,1.52.91Z"/>
  <path class="cls-3" d="M66.41,71.5c-.88-.88-.97-3.14-.21-4.03.31-.36.58-.4.96-.2.43.23.7.59.96,1,.42.66-.68,2.47,1.45,1.88,2.06-.57,3.29-1.8,3.12-3.37-.3-2.77-3.83-6.01-6.58-6.05-2.31-.04-3.71,1.27-3.79,3.57-.04,1.06,0,2.12,0,3.22-1.21,0-1.9-1-2.95-1.25-1.35-.32-2.56-.36-3.51.72-1.02,1.17-.65,2.5-.13,3.75.2.48.54.93.91,1.3,1.1,1.11,1.74,2.36,1.48,3.95.11-1.12-.78-1.62-1.46-2.14-2.1-1.61-2.91-4.66-1.88-7.07.66-1.54,1.86-1.92,3.33-1.82.68.04,1.35.27,2.04.37.59.09.94-.05,1.08-.79.88-4.72,4.11-6.25,8.21-3.83,2.16,1.28,4.02,3.15,4.32,5.63.22,1.82.49,2.59,2.32,3.49,3.3,1.62,5.88,4.27,5.69,8.58.96-1.35,1.6-2.79,3.08-3.66,1.34-.79,2.51-1.01,3.8-.09-.02.35-.03.69-.05,1.03-.41.22-.82.05-1.24,0-1.23-.16-3.08,1.06-3.46,2.33-.39,1.32.71,1.64,1.56,2.17,1.99,1.25,2.96,3.82,2.44,6.24-.93.13-1.08.07-1.07-.86.03-2.09-1.18-3.36-2.73-4.48-.62-.45-1.45-.76-1.43-1.8,0-.38-.42-.71-.82-.55-1.3.5-1.18-.31-1.2-1.15-.07-3.2-3.28-6.91-6.44-7.49-1.15-.21-2.25.59-2.36,1.74-.15,1.5.23,1.9,1.93,1.91.87,0,1.7.01,2.3.8.72.93.41,2.92-.57,3.54-.27.17-.55.2-.69-.08-1.18-2.29-3.38-3.25-5.52-4.31-.06-.03-.06-.18-.1-.28.15-.01.32-.07.47-.04,1.01.22,1.15-.35,1.16-1.17.01-1.07-.64-.72-1.17-.59-1.19.28-1.89-.38-2.47-1.44-.3.52-.53.91-.75,1.31ZM73.58,75.07c.73.55.91,1.45,1.79,1.32.3-.04.27-.53.15-.82-.34-.79-.95-.84-1.94-.5Z"/>
  <path class="cls-3" d="M100.84,62.61c-2.01,1-2.14.94-2.81-1.33-.6-2.03-1.26-2.57-3.45-2.33-1.5.16-2.83,0-3.99-1-.64-.55-1.39-.37-2.12-.37-1.1-.21-1.31-.65-.48-1.51,1.33-1.38,2.98-2.34,4.42-3.57.95-.81,1.97-1.55,2.92-2.33,2.47-2.06,5.27-1.64,8.07-1.54.95.04.61.73.42,1.16-.89,2-1.74,4.04-2.12,6.19-.39,2.2-1.17,4.36-.87,6.65Z"/>
  <path class="cls-3" d="M78.91,126.84c0,.98-.76,1.49-1.4,2.01-1.27,1.03-2.56,2.05-3.9,2.99-2.23,1.57-3.68,3.63-4.19,6.31-.19,1-.75,1.09-1.49.66-.82-.47-1.66-.94-2.38-1.55-1.79-1.51-1.88-2.69-.2-4.44,1.69-1.76,3.54-3.36,5.34-5.02,1.14-1.05,2.19-2.17,3.02-3.48.19-.3.3-.68.71-.82,1.31-.44,4.51,1.93,4.48,3.33Z"/>
  <path class="cls-1" d="M43.33,70.71c.09-2.58,1.53-3.93,4.15-3.84.87.03,1.76.03,2.62.2,1.21.24,2.34.61,2.33,2.24,0,.61.29,1.23.45,1.84.16.67,1.07,1.43.22,1.98-.87.56-1.76,1.67-3.09.77-.55-.37-.93-.32-1.55.26-1.03.96-2.51.34-3.79.35-.87,0-.78-1.01-1-1.61-.25-.7-.4-1.43-.34-2.19Z"/>
  <path class="cls-1" d="M39.64,91.35c-.97-2.22-.82-3.34.62-4.66,2.15-1.98,2.83-4.43,2.24-7.22-.2-.93-.05-1.38.86-1.62,1.47-.39,2.92-.89,4.41-1.21,1.16-.25,1.55.41,1.54,1.6-.02,1.8-.85,2.83-2.28,3.88-3.19,2.35-5.39,5.59-7.38,9.23Z"/>
  <path class="cls-3" d="M84.2,120.9c-.01,2.11-2,3.99-4.2,3.96-1.36-.02-2.62-1.39-2.65-2.89-.04-1.95,1.77-3.65,3.84-3.63,1.88.02,3.02.99,3.01,2.56Z"/>
  <path class="cls-3" d="M116.87,67.33c.24,1.19-.83,1.13-1.61,1.18-.77.04-1.63-.03-1.63-1.21,0-1.38.24-2.72.58-4.05.09-.35.09-.79.59-.81.35-.01.55.29.73.54.41.56,1.34,3.48,1.33,4.35Z"/>
  <path class="cls-3" d="M83.08,62.65c.13,1.17.43,2.3.95,3.35-.95.77-2.03.24-3.05.27-.31,0-.77-.34-.5-.78.67-1.12,1.13-2.46,2.61-2.85Z"/>
  <path class="cls-3" d="M67.58,100.23c-.05,0-.11,0-.16.02-.77.22-1.58,1.61-1.94,1.04-.5-.8-.03-2.12.3-3.16.17-.54,3.18-.8,3.55-.37.3.35.02.57-.22.78-.6.51-1.23.98-1.57,1.72,0,0,.03-.03.03-.03Z"/>
  <path class="cls-1" d="M71.44,149.58c-1.01-1.27-2.66-1.82-3.69-3.17,1.43-.21,5.83,2.91,6.24,4.38-1.07-.02-1.58-1.18-2.59-1.25,0,0,.04.04.04.04Z"/>
  <path class="cls-3" d="M36.23,43.2c-2.93.15-5.87.66-8.8.04,2.93-.54,5.87-.18,8.8-.04Z"/>
  <path class="cls-3" d="M118.24,31.59c-.17.59-.5,1.22-1.16,1.28-.67.07-.74-.64-.79-1.14-.09-.76.47-1.01,1.08-1.05.54-.04.89.25.87.9Z"/>
  <path class="cls-3" d="M106.96,67.54c.67,0,1.01,1.05,1.83.59.08.27.15.53.23.79-1.03.05-1.67-.48-2.08-1.37h.02Z"/>
  <path class="cls-1" d="M114.68,104.35c-.94.04-1.12-.63-1.24-1.35l-.03.03c.41.45.82.9,1.24,1.35,0,0,.03-.03.03-.03Z"/>
  <path class="cls-1" d="M70.26,149.74c-.45-.03-.96.07-1.21-.45-.09-.2.02-.43.24-.49.62-.19.91.26,1.23.65-.09.1-.17.2-.26.29Z"/>
  <path class="cls-1" d="M113.44,102.99c-.32.2-.58.01-.84-.13l-.03.02c.32-.18.59-.08.85.14,0,0,.03-.04.03-.04Z"/>
  <path class="cls-1" d="M112.59,102.86c-.05-.14-.1-.29-.15-.43.07.01.14.03.21.04-.03.14-.06.27-.09.41,0,0,.03-.02.03-.02Z"/>
  <polygon class="cls-1" points="111.89 101.89 111.93 101.77 111.93 101.89 111.89 101.89"/>
  <path class="cls-2" d="M111.57,83.15c-.11,1.33-.3,2.39-1.86,3.09-4.07,1.84-8.24,2.83-12.7,2.47-.47-.04-.97-.09-1.41-.26-1.27-.5-1.37-1.05-.39-2.03,5.33-5.4,11.47-9.61,18.41-12.67.43-.19,1.32-.13,1.13-.83-.21-.78-1.01-.31-1.51-.23-5.73.89-11.45,1.82-17.18,2.72-1.05.17-2.12.23-3.18.34-.49.05-1,.09-1.21-.49-.21-.58.35-.72.65-.95,2.28-1.74,4.59-3.46,6.88-5.2.28-.21.77-.33.68-.79-.11-.58-.65-.43-1.04-.44-2.55-.1-5.09-.34-7.62-.74-1.02-.16-2.14-.35-2.82-1-.87-.84-1.42-2-2.38-2.86-.41-.37.08-1.22.68-1.58.63-.37,1.3-.68,1.91-.99.33.15.24.32.19.54-.48,2.02-.01,2.46,1.94,1.93,1.52-.41,2.93-1.22,4.93-1.43-.85.92-1.45,1.55-2.03,2.2-1.01,1.13-.91,1.49.51,1.95,2.8.9,5.7,1.3,8.6,1.71,1.47.21,1.59.54.91,1.87-.68,1.33-2.03,1.74-3.15,2.47-.17.11-.44.06-.6.18-.54.39-1.41.72-1.08,1.54.29.72,1.03.17,1.57.14.16,0,.34-.02.47-.1,3.15-2.09,6.56-2.1,10.11-1.39.86.17,1.79-.09,2.67-.36,1.04-.32,2.16-.6,2.83.61.74,1.33.25,2.48-.82,3.41-1.19,1.03-2.67,1.55-4.08,2.14-2.95,1.24-5.87,2.52-7.9,5.16-.36.46-.71.93-.99,1.44-.44.82-1.24,1.74-.49,2.61.74.86,1.84.3,2.69-.01,2.5-.94,4.67-2.47,6.72-4.17h-.02Z"/>
  <path class="cls-3" d="M129.1,109.57c-1.69-.96-3.55-1.51-5.36-2.17.12-1.15.25-2.3.37-3.45,1.5.65,1.71-.92,2.45-1.49,1.52-1.17,1.71-1.14,2.18.73.15.58.08,1.49,1.16,1.38,1.29-.12,4.79-3.4,4.88-4.73.05-.8.49-1.94-.47-2.32-1.05-.4-2.41-.61-3.34.21-1.27,1.12-2.15,1.06-3.42-.06-.89-.79-2.09-.65-2.7.66-2.08-3.21-.39-6.06.64-8.97.18-.52.3-.56.95-.46,1.86.29,3.47,2.25,3.04,4.29-.21.99.37,1.12.95.77,1.14-.71,2.36-.57,3.57-.57,2.49,0,4.51,1.99,4.61,4.5.15,4.01-2.09,6.73-5,9.05-1.37,1.09-2.88,1.96-4.51,2.62ZM126.47,92.46c0-.58-.17-1.26-.81-1.09-1.02.28-.41,1.49-.92,2.15-.23.3.06.65.46.53.75-.24,1.28-.72,1.27-1.59Z"/>
  <path class="cls-3" d="M119.03,122.34c.07.73.14,1.46.21,2.25.41-.63-.41-1.73.67-1.93.68-.13,1.43-.14,2.18.12,5.26,1.82,7.31,7.6,5.9,12.56-1.14,4-3.37,7.21-6.69,9.7-.5.38-.91.46-1.44.29-.84-.82-1.76-1.36-2.99-1.48-1.48-.14-2.37-1.02-2.33-2.62.43-.29.89-.54,1.33-.81,2.68-1.67,5.4-3.32,6.85-6.34.87-1.79.26-4.07-1.63-4.62-1.42-.41-2.2-.98-2.35-2.41.14-1.57-.05-3.15.29-4.71Z"/>
  <path class="cls-2" d="M121.16,89.47c1.2.58.75,1.38.29,2.18-.71,1.25-2.18,1.77-2.88,3.09-.42.78-.71,1.7-.34,2.25.97,1.44-.07,2.72.2,4.19-1.43-.57-2.31-1.18-2.09-2.74.12-.87.01-1.8-.47-2.63-.43-.74-.42-1.55-.05-2.3.76-1.56.55-3.08.03-4.65-.17-.51-.61-1.1-.02-1.62.96-.83.77-1.88.64-2.93.61.74,1.41.54,2.16.61.11-.67-.6-.47-.65-.93.58-.67,1.63.14,2.19-.62.14.14.33.27.4.44.09.23-.07.37-.31.44-.27.08-.68-.03-.72.44q1.54.37,2.12-.13c.24.02.48.08.67-.14.5,1.48.83,2.89-.97,3.81-.33.17-.65.54-.66,1.01-.06.04-.1.09-.14.15-.64.2-1.18.48-1.09,1.29-.24-.05-.49-.11-.34.29-.7-.34-.91.34-1.68.6,1.09.37,1.48.08,1.65-.63.21,0,.31-.11.35-.3.45-.3.89-.59,1.34-.89.2.02.34-.05.38-.26Z"/>
  <path class="cls-2" d="M110.46,154.33c-.22.35-.18,1.19-.74.93-1.2-.55-1.27-.05-1.48.97-.27,1.27-1.7.52-2.3.95-.57.4-.04,1.92-1.31,2.18-.45.09-.95-.02-1.47-.05-.17.11-.13.3-.1.51.17.99.15,2.09-.75,2.57-1.11.59-2.4.52-3.47-.33-1.53-1.21-2-2.97-2.31-4.77-.15-.88.49-1.25,1.22-1.4.73-.15,1.37-.05,1.59.86.11.45.33.87.47,1.21-.11.71-1.56-.09-1.1,1.12.37.97.54,2.13,1.82,2.39.38.08.87-.04.9-.47.09-1.17.7-2.26.71-3.39.02-1.34.75-2.22,2.11-2.01.34.05.67.28.77-.38.33-2.14.36-2.13,2.7-1.88-.19-1.18-1.12-1.86-1.67-2.75-.22-.35-.5-.66-.12-.89.33-.19.83-.58,1.24.07.46.74.78,1.61,1.45,2.13.39-.1.44-.28.36-.5-.22-.57-.1-.98.57-.98.57,0,.67.46.65.91-.03.85-.88,1.89.68,2.29.89.23,1.73.55,2.55-.17.24-.21.49-.14.65.15.22.41.07.74-.28.96-.64.38-1.31.36-2,.13-.44-.15-.8-.57-1.34-.38-.05-.07-.1-.13-.15-.2-.03.07-.05.13-.08.2.08,0,.15,0,.23-.01ZM105.37,156.72c.05.24.21.36.44.37.05,0,.17-.2.15-.23-.12-.16-.25-.37-.42-.43-.17-.06-.21.13-.17.29Z"/>
  <path class="cls-2" d="M87.88,86.44c.53-2.41-.45-4.98-2.44-6.24-.84-.53-1.95-.85-1.56-2.17.38-1.28,2.24-2.49,3.46-2.33.42.05.82.23,1.24,0,.1.09.19.19.29.28,0,0-.07.01-.07.01h.04c.32,1.1.99,1.97,1.81,2.74,1.63,4.47,0,8.79-.58,13.16-.71.15-1.68.78-1.11-.88.17-.51-.27-1.31-.6-1.89-.49-.87-.62-1.75-.49-2.7Z"/>
  <path class="cls-2" d="M112.4,151.07c.01-1.02-.11-2.1,1.01-2.66.73-.37,1.29.02,1.9.77.14-1.09.28-1.94,1.22-2.28.36-.13.73-.24,1.04.07.34.33.24.69-.03,1-.29.33-.73.66.09.82.67.13,1.13.45.99,1.18-.14.69-.67,1.15-1.36,1.17-1.53.04-2.49,1.36-3.99,1.65-.95.19-1.37.35-1.77-.55-.09-.19-.18-.39-.26-.58-.19-.48-.93-1.02-.08-1.46.77-.4.53.77,1.22.87Z"/>
  <path class="cls-2" d="M118.75,127.05c.14,1.43.93,2,2.35,2.41,1.89.54,2.5,2.82,1.63,4.62-1.46,3.02-4.17,4.67-6.85,6.34-.43.27-.89.53-1.33.81-.8-.9.46-1.26.51-1.92.16.35.43.26.64.11,1.03-.73,2.04-1.48,3.06-2.22,1.39-.97,2.31-2.34,3.1-3.78.53-.96.2-1.89-.55-2.6-.74-.71-1.57-1.34-2.59-.39l-.28-.8c.18-.85-.11-1.75.32-2.56Z"/>
  <path class="cls-3" d="M90.08,91.91c.59-4.37,2.21-8.69.58-13.16.59.13,1.25-.15,1.79.31.02,1.68.29,3.33.69,4.96-.83,1.68-1.28,3.33-.85,5.3.29,1.36-.89,2.21-2.21,2.59Z"/>
  <path class="cls-3" d="M118.43,129.61c.09.27.19.54.28.8,0,1.41-.53,2.71-1.08,3.94-.65,1.47-.47,2.37,1.12,2.83-1.02.74-2.04,1.49-3.06,2.22-.21.15-.48.24-.64-.11,1.51-3.1,2.66-6.32,3.37-9.69Z"/>
  <path class="cls-2" d="M111.59,83.14c.51.11.84.16,1.28-.44,1.07-1.43,2.75-2.11,4.25-3.02-1.1,1.98-2.74,3.39-4.68,4.82.01-.76.48-1.85-.88-1.36,0,0,.02,0,.02,0Z"/>
  <path class="cls-3" d="M121.67,84.54q-.58.5-2.12.13c.04-.47.45-.37.72-.44.24-.07.4-.21.31-.44-.07-.17-.26-.29-.4-.44-.56.76-1.61-.05-2.19.62.05.46.75.26.65.93-.75-.07-1.55.14-2.16-.61.06-.31.12-.61.17-.91,1.11.25,1.88-.89,2.97-.72.63-.02,1.27-.05,1.9-.07.32-.01.74-.52.91.05.07.24-.29.61-.45.92,0,0,0,0,0,0-.32,0-.62.04-.7.41-.06.28.1.47.37.55v.02Z"/>
  <path class="cls-2" d="M93.14,84.02c-.4-1.63-.67-3.28-.69-4.96,2.76,1.03,3.02,2.91.69,4.96Z"/>
  <path class="cls-2" d="M119.52,96.41c1.11.39,1.7,1.01,2.07,1.88.26.6-.01,1.08-.43,1.39-.45.34-1.03.53-1.62.47-.39-.04-.26-.4-.25-.63.06-.99.14-1.97.22-3.11Z"/>
  <path class="cls-2" d="M66.41,71.5c.23-.39.45-.79.75-1.31.58,1.06,1.28,1.71,2.47,1.44.53-.12,1.18-.48,1.17.59,0,.82-.15,1.38-1.16,1.17-.15-.03-.31.02-.47.04-1.32-.07-1.72-1.47-2.77-1.93Z"/>
  <path class="cls-2" d="M78,93.91c1.46-1.09,2.99-1.53,4.49-1.21-1.5.4-2.99.81-4.49,1.21Z"/>
  <path class="cls-2" d="M121.98,83.57c.16-.31.53-.68.45-.92-.17-.57-.59-.06-.91-.05-.63.02-1.27.05-1.9.07,1.01-.76,2.22-.55,3.36-.68.36-.04.64.2.68.53.07.6-.52.8-.83,1.17-.28-.04-.57-.08-.85-.12Z"/>
  <path class="cls-2" d="M61.37,69.27c.66-.35,1.09-.36,1.01.59-.1,1.25-1.17,1.23-1.94,1.29-.4.03-1.22-.52-.54-1.32.29.91,1.03.63,1.53.42.47-.2.37-.67-.07-.97Z"/>
  <path class="cls-3" d="M61.37,69.27c.43.3.54.77.07.97-.51.21-1.24.49-1.53-.42,0,0-.04,0-.04,0,.4.07.66-.09.77-.48.25-.02.49-.04.74-.06Z"/>
  <path class="cls-2" d="M111.38,149.09c-.1.36-.25.64-.65.57-.34-.06-.59-.29-.52-.66.06-.3.21-.64.62-.57.35.06.49.35.55.66Z"/>
  <path class="cls-3" d="M104.37,64.51c-1.28.12-2.52.11-3.71-.38,1.28-.24,2.48.4,3.71.38Z"/>
  <path class="cls-3" d="M121.98,83.57c.28.04.57.08.85.12.4.63-.34.47-.49.71-.19.22-.43.16-.67.14,0,0-.01-.02-.01-.02.11-.32.22-.64.33-.95h0Z"/>
  <path class="cls-2" d="M60.64,69.33c-.11.39-.37.55-.77.48.17-.31.41-.48.77-.48Z"/>
  <path class="cls-3" d="M106.94,67.55c-.07-.12-.14-.25-.21-.38,0,0,.08-.05.12-.07.03.14.07.29.1.43,0,0-.02.01-.02.01Z"/>
  <path class="cls-3" d="M139.28,105.39c.04.14.07.27-.15.24-.12-.19,0-.22.15-.24Z"/>
  <polygon class="cls-3" points="88.85 76 88.81 76.01 88.87 76 88.85 76"/>
  <polygon class="cls-3" points="121.17 148.72 121.25 148.75 121.19 148.81 121.17 148.72"/>
  <path class="cls-3" d="M78.91,35.53c-.31.8-.17,2.24-1.46,2.03-1.55-.26-1.31-1.8-1.36-2.99-.02-.46-.04-1.24.61-.96.86.37,2.22.37,2.2,1.92Z"/>
  <path class="cls-3" d="M85.19,33.92c.24-.46-.34-1.33.58-1.52.75-.16,2.24,1.19,2.09,1.91-.17.86-.05,2.21-1.34,2.15-1.47-.08-1.2-1.47-1.33-2.54Z"/>
  <path class="cls-3" d="M108.03,32.98c-.42.04-.63-.22-.52-.57.3-1.03.75-2.02,1.91-2.3.52-.13.71.36.73.82.04.8-1.28,2.06-2.11,2.05Z"/>
  <path class="cls-2" d="M51.19,112.23c.35,1.07.42,2.1.97,2.97.32.5.02.93-.28,1.29-.7.81-1.49,1.51-2.5,1.91-.62.25-1.25.4-1.79-.12-.55-.54-.37-1.19-.1-1.78.79-1.73,2.02-3.09,3.71-4.28Z"/>
  <path class="cls-2" d="M38.12,103.81c.39.99.7,1.94,1.12,2.84.55,1.2-.36,1.81-1.01,2.4-.9.82-2.07,2.09-3.25.97-1.04-.98-.16-2.24.65-3.22.8-.97,1.29-2.2,2.49-2.99Z"/>
  <path class="cls-2" d="M82.33,135.19c.57.12,1.27-.16,1.43.54.14.64-.29,1.03-.85,1.36-1.27.77-2.55.87-3.89.25-.23-.11-.53-.4-.32-.62.99-1.07,2.32-1.4,3.63-1.53Z"/>
  <path class="cls-2" d="M91.89,144.31c.62.27,1.4.44,1.47,1.36.05.57-1.89,1.76-2.71,1.71-.69-.04-.5-.55-.5-.93,0-1.18.79-2.16,1.74-2.14Z"/>
  <path class="cls-2" d="M66.89,92.03c-.53-.29-1.67.15-1.52-.91.16-1.13,1.32-1.34,2.26-1.32.81.02,2.27.3,2.12.97-.27,1.23-1.79.97-2.86,1.26Z"/>
  <path class="cls-2" d="M73.58,75.07c.99-.34,1.61-.29,1.94.5.12.29.15.78-.15.82-.88.13-1.07-.77-1.79-1.32Z"/>
  <path class="cls-1" d="M126.47,92.46c0,.87-.52,1.35-1.27,1.59-.4.13-.69-.23-.46-.53.51-.67-.09-1.88.92-2.15.64-.17.81.51.81,1.09Z"/>
  <path class="cls-1" d="M119.09,90.93c-.16.71-.55.99-1.65.63.77-.26.98-.94,1.68-.6,0,0-.03-.03-.03-.03Z"/>
  <path class="cls-1" d="M119.47,90.66c-.09-.81.45-1.09,1.09-1.29.07.12.14.25.22.37-.45.3-.89.59-1.34.89l.03.03Z"/>
  <path class="cls-1" d="M119.44,90.63c-.04.19-.14.31-.35.3,0,0,.03.03.03.03-.15-.41.1-.35.34-.29,0,0-.03-.03-.03-.03Z"/>
  <path class="cls-1" d="M121.16,89.47c-.04.22-.18.28-.38.26-.07-.12-.14-.24-.22-.37.04-.06.09-.11.14-.15.15.09.3.17.46.26Z"/>
  <path class="cls-1" d="M105.37,156.72c-.04-.16,0-.35.17-.29.17.06.3.27.42.43.02.03-.1.23-.15.23-.23,0-.39-.13-.44-.37Z"/>
  <path class="cls-1" d="M110.46,154.33c-.08,0-.15,0-.23.01.03-.07.05-.13.08-.2.05.07.1.13.15.2,0,0,0-.01,0-.01Z"/>
  <path class="cls-1" d="M118.76,137.19c-1.6-.46-1.78-1.37-1.12-2.83.55-1.23,1.08-2.53,1.08-3.94,1.02-.95,1.85-.31,2.59.39.75.71,1.08,1.64.55,2.6-.79,1.44-1.71,2.81-3.1,3.78Z"/>
  <path class="cls-2" d="M121.99,83.57c-.11.32-.22.64-.33.95-.27-.08-.43-.27-.37-.55.08-.36.38-.41.7-.41Z"/>
</svg>