<?xml version="1.0" encoding="UTF-8"?>
<svg id="Layer_1" data-name="Layer 1" xmlns="http://www.w3.org/2000/svg" viewBox="0 0 144.72 187.63">
  <defs>
    <style>
      .cls-1 {
        fill: #77399a;
      }

      .cls-1, .cls-2, .cls-3 {
        stroke-width: 0px;
      }

      .cls-2 {
        fill: #4dc52b;
      }

      .cls-3 {
        fill: #fefefe;
      }
    </style>
  </defs>
  <path class="cls-1" d="M68.67,0c5.35.55,9.47,4.35,11.24,11.06,2.15,8.16,13.9,13.6,21.51,9.48,6.92-3.74,13.27-3.65,19.69.61,3.97,2.64,8.1.69,12.18.65,8.57-.09,14.43,7.51,9.81,14.56-6.83,10.42-7.92,20.85-5.55,32.4.25,1.24-.38,2.99-1.18,4.06-7.27,9.62-9.51,20.11-6.78,31.96.64,2.76-.05,6.86-1.79,8.96-8.23,9.93-4.23,19.4.04,29.11,2.14,4.87,6.76,11.11-4.57,10.11-.63-.06-1.72,1.14-2.04,1.97-9.83,25.73-39.49,37.58-64.65,25.45-5.6-2.7-10.7-6.57-13.91-12.28-.24-.43-.86-.64-1.3-.96-.15.48-.38.94-.43,1.43-.51,5.14-.96,10.28-1.48,15.41-.18,1.72-.8,3.6-2.86,3.27-4.12-.66-9.11,1.96-12.14-1.39-1.72-1.9-1.34-6.08,2.67-7.73,1.9-.78.14-14.09-2.11-15.27-5.98-3.14-1.36-6.28.27-8.83,1.21-1.89,2.52-3.65.56-4.96-6.3-4.18-6.06-9.99-4.32-16.01,1.62-5.61.91-10.44-2.57-15.12-4.59-6.16-5.89-13.07-3.43-20.42,2.14-6.41.49-12.02-3.35-17.12-5.05-6.69-6.99-14.09-4.08-21.95,3.31-8.94-3.81-14.03-6.69-20.66-3.97-9.13.88-17.05,10.69-15.77,5.78.76,10.44-.42,15.25-2.99,7.29-3.9,13.29,1.08,19.75,2.99,1.22.36,2.66,0,4-.02-.14-1.08-.16-2.2-.45-3.24C47.81,8.79,55.4.1,68.67,0ZM84.6,35.8h.01c-.14-.12-.27-.26-.41-.39,0,0,.01.02.01.02-1.2-1.71-2.39-3.42-3.59-5.13-.25-.45-.5-.9-.74-1.35-.49-1.3-.99-2.61-1.5-3.9-.02-.05-.27-.01-.41-.02.38,2.18.76,4.37,1.13,6.55.4.62.79,1.24,1.19,1.86,1.76,1.56,3.52,3.11,5.28,4.67.6.14,1.2.28,1.8.42l.07.08s-.08-.06-.08-.06c-.79-.78-1.58-1.56-2.37-2.35,0,0,.01,0,.01,0-.14-.13-.27-.27-.41-.4ZM73.63,7.91c-.02-.06-.04-.12-.07-.17-.02-.02-.08-.01-.13-.02.07.06.14.11.21.17-.06.12-.08.25-.05.38-.24.16-.47.32-.71.48-.14-.02-.28-.05-.43-.07-.13-.13-.26-.26-.39-.39-.35-.73-.69-1.47-1.04-2.2-.69-.26-1.38-.53-2.07-.79.18-.15.35-.29.53-.44-1.26.33-2.51.66-3.77.98,1.38.38,2.76.76,4.15,1.13.74.44,1.48.87,2.21,1.31.13.13.26.26.39.39.66,1.37,1.33,2.75,1.99,4.12-.08.54-.15,1.08-.23,1.63-.9.46-.43-2.65-1.96-.74-.16.21-.91-.05-1.38-.09-.59-.71-1.19-1.42-1.78-2.14-.23-.2-.47-.4-.7-.6.62,2.25.8,4.79,1.99,6.68,1.18,1.86,3.38,3.07,5.14,4.57.4-.99.8-1.97,1.2-2.96,1.51,3.02.29-2.79,1.58-.49-.2-1.78-.41-3.57-.61-5.35-.42.14-.84.28-1.26.41-.9-1.64.02-4.15-2.41-5.07,0,0,.01.02.01.02-.14-.26-.27-.52-.41-.78ZM85.02,160.27c.09-.08.18-.17.26-.25-.06-.03-.13-.06-.19-.09-.02.12-.03.25-.05.37-.14.13-.27.26-.41.39-.52.66-1.04,1.31-1.56,1.97-1.29.92-2.64,1.78-3.87,2.78-1.09.89-2.06,1.95-3.08,2.93,1.51.1,3.06.45,4.53.26,8.53-1.1,15.56-5.01,21.07-11.64.23-.27.4-.59.6-.89-.35.11-.73.16-1.04.34-5.66,3.31-13.17,1.18-18.25,6.19.52-.66,1.04-1.31,1.56-1.97.14-.13.27-.26.41-.39ZM87,40.9l-.03-.02c-.38-.15-.76-.31-1.13-.46-.44.3-.88.6-1.31.9.77,1.43,3.49,2.41,1.04,4.57-.8-.11-1.85.06-2.38-.39-5.56-4.73-10.38-6.67-12.7,2.85-.14-.17-.29-.35-.43-.52-.04.04-.09.09-.13.13.18.13.36.27.55.4-4.5,7.8,3.93,14.54,1.8,22.15,2.06.48,4.12.97,6.19,1.43.15.03.35-.18.53-.29-.27-.26-.55-.52-.82-.78,3.29-.8,2.37-4.72,4.64-6.27.07.5.14.99.2,1.49-.09,1.3-.73,2.95,1.69,2.64.3.71.6,1.42.89,2.13-.07-.74-.13-1.48-.2-2.22-.17-1.58-.35-3.17-.52-4.75.11-.12.23-.23.34-.35.25-1.17.5-2.33.74-3.5.55,3.56,1.09,7.12,1.64,10.68.14.47.27.94.41,1.41.12-.14.24-.27.35-.41.51.89,1.02,1.79,1.53,2.68.11-1.07.25-2.14.32-3.22.22-3.43,2.98-6.48.55-10.43-1.15-1.87-.11-5.08-.07-7.68.3.37.61.74.91,1.11.3,2.07.9,4.15.85,6.22-.12,5.33-.52,10.65-.81,15.98l.53,1.49c.16-.45.37-.89.47-1.36.42-2.1.8-4.21,1.2-6.32,2.64-3.47.18-6.91-.07-10.36.09-2.06.18-4.13.28-6.19.28,0,.55,0,.83-.01.59,4.21,1.17,8.42,1.76,12.63-1.76,2.29-1.46,4.64-.19,7.01.08,1.01.16,2.02.24,3.03.81-1.59,2.37-3.22,2.32-4.78-.25-6.8-.72-13.62-1.65-20.35-.35-2.5-2.19-4.8-3.36-7.19.29,1.13.59,2.26.88,3.4-.34.07-.68.13-1.02.2-1.25-1.95-.97-4.99-4.04-5.64-.36.05-.71.09-1.07.14-.45-.27-.9-.54-1.35-.81,0,0-.01-.01-.01-.01-.12-.12-.25-.25-.37-.37ZM77.15,36.57h.02c-1.34-1.1.59-4.51-2.89-4.12-.66.3-1.73.44-1.91.92-1.11,2.94.79,4.92,2.73,6.54.78.65,2.42.27,3.67.36-.21-.58-.41-1.16-.62-1.73-.07-.09-.13-.2-.16-.31-.04-.28-.09-.57-.13-.85-.23-.26-.47-.53-.7-.79ZM67.34,3.57c-2.13-1.02-3.01.31-3.68,1.99-.1.26-.03.58-.04.88,1.25-.95,2.5-1.9,3.74-2.84l.06-.13s-.05.07-.08.11ZM70.55,79.36c0,.11-.03.21-.1.3-.33.76-1.14,1.91-.9,2.2,1.11,1.37-2.3,4.93,2.17,4.55.76-3.33,1.51-6.67,2.27-10-.22-.8-.43-1.59-.65-2.39l-1.11.79c-1.63-2.34-4.67-4.11-5.85-1.35-.95,2.21,3.05.53,4.57,1.44.31.19.5.58.74.88-.39,1.19-.77,2.38-1.16,3.57ZM51.92,75.68c.16.33.31.67.47,1,.4-.19.79-.38,1.19-.57-.36-.16-.72-.32-1.08-.48-.31-1.95-.61-3.9-1.01-5.84-.02-.11-.95-.02-1.46-.03.63,1.97,1.26,3.95,1.89,5.92ZM76.54,86.45c.56-3.93,1.14-7.86,1.63-11.8.05-.41-.46-.89-.71-1.34-.36.37-.71.75-1.07,1.12-.86,3.8-1.73,7.6-2.59,11.4-3.5,4.23-6.9,8.69-13.47,6.93-2.9-.78-3.68,1.38-3.86,3.25-.29,3.06-2.64,4.03-4.65,4.43-13.94,2.77-22.18,11.45-22.09,23.7,0,.17,0,.34,0,.51-.29,9.15-.59,18.29-.83,27.44-.03,1.01.46,1.14,1.7,1.25,5.87.52,4.33-4.36,5.37-7.13,2.64-7.05,7.87-13.66,4.49-21.9-.84-2.06-.87-5.35.16-5.47,4.32-.52,8.75-.05,13.15.05-.1.27-.12.72-.31.8-4.49,1.92-.68,5.19-.74,7.53-.06,2.61,3.43,1.97,5.69,1.47-.5,4.46-5.74.17-6.82,3.71-.35,1.15-1.05,2.2-1.6,3.3.24-1.32.49-2.64.72-3.97.11-.64.18-1.29.27-1.93-.25.25-.59.45-.75.75-2.48,4.66-2.67,9.42-.02,13.99,2.58,4.46,6.64,6.95,11.81,7.38.82.07,1.69-.51,2.54-.78-.67-.64-1.27-1.37-2.02-1.89-4.96-3.44-7.55-7.72-5.33-13.92,1.15-3.21,3.73-6.2,1.76-9.97-.07-.38-.34-.91-.19-1.12.95-1.27,1.99-2.49,3.04-3.68.08-.1.74.14.74.16-.15.99-.38,1.97-.54,2.95-.73,4.58-2.51,10.17,3.63,11.86,9.34,2.57,18.99,4.02,28.53,5.84.85.16,2.55-.31,2.66-.77.4-1.67.98-4.57.25-5.03-5.69-3.57-11.02-8.02-18.11-8.77-2.22-.23-4.4-.77-6.6-1.17.8-1.27,1.36-2.81,2.43-3.77,6.37-5.68,13.34-10.64,17.89-18.25,2.35-3.93,3.12-7.21,3.19-11.99.05-3.77-1.51-6.47-2.32-9.4-.43-1.54-3.01-6.17-7.13-1.44-3.67,4.22-5.3,9.17-7.79,13.83-.73,1.37-2.38,2.26-3.64,3.33-.07.06-.38-.16-.58-.25,2.29-3.98.46-7.75-.61-11.55.9.1,1.8.2,2.7.3ZM63.52,71.1c-2.22-4.76-6.31-.93-9.35-1.97-.25-.08-1.12.7-1.06.89.17.55.58,1.36,1.03,1.45,2.19.44,4.42.69,6.64,1,.27.62.53,1.24.8,1.85,1.23-1.09,2.46-2.19,3.69-3.28-.58.02-1.16.04-1.74.07ZM80.12,120.05c-1.64,1.26-3.28,2.52-4.91,3.78,2.09.52,4.17,1.11,6.29,1.51.61.11,1.46-.18,1.97-.57,3.08-2.41-.9-3.16-1.24-4.79-.05-.22-.96-.26-1.47-.38-.21.15-.42.31-.63.46ZM31.78,163.45c.36,2.46.72,4.92,1.07,7.38-.16,2.68.45,2.75,1.74.51.15.53.3,1.07.46,1.6,2.54-5.63.32-11.28-.12-16.89-.12-1.56-2.52-1.22-2.69-.38-.51,2.52-.36,5.18-.46,7.78ZM72.07,153.2c-1.72,3.86,1.78,5.49,3.69,7.2,2.47,2.21,3.08-1.55,4.39-2.6,1.06-.85,3.33-1.98,2.18-4.03-3.06-5.47-6.53-6.86-10.29-.53l.03-.03ZM54.87,9.27c.96,3.21-6.34,11.05,4.94,8.57,2.72-.6,2.42,2.95,3.62,4.5.15.19-.22,1.14-.38,1.15-1.78.12-3.53,1.23-5.25-.87-1.28-1.56-3.51-2.34-5.31-3.47.46,1.68.82,3.41,1.44,5.03.33.87,1.12,1.56,1.72,2.33,2.91,3.74,5.15,9.64,8.86,10.78,8.52,2.63,6.22-7.29,9.77-10.85.97-.97.25-2.33-1.28-2-9.79,2.1-1.84-7.63-6.15-9.14,1.58-3.71-.53-4.62-3.58-6.08-2.81-1.34-4.91,1.42-7.28.06.64-.56,1.27-1.13,1.91-1.69-1.1.25-2.2.5-3.3.76.09.31.18.62.27.93ZM114.87,121.01l-.02-.04c1.16,4.57,2.29,9.15,3.52,13.7.19.71.88,1.3,1.33,1.94.19-.87.5-1.73.54-2.6.08-1.67.02-3.34.01-5.01.35,1.78.71,3.55,1.04,5.33.08.45-.01.92.07,1.37.13.72.34,1.43.51,2.14.07-.72.29-1.47.17-2.17-1.24-7.15-2.01-13.9-7.05-20.4-3.26-4.21-4.26-9.61-10.78-10.11-.11,0-.33-.54-.25-.65,2.78-4.02-2.26-3.11-3.12-4.84-.19-.38-1.15-.36-1.76-.53.45.45.89.92,1.34,1.36.65.62,1.31,1.23,1.97,1.84-.9-.42-1.77-.94-2.7-1.23-.84-.27-2.16-.73-2.57-.35-1.18,1.08-.34,1.88.81,2.6.92.59,1.63,1.53,2.38,2.36.02.02-.75.9-.84.84-7.37-4.43-7.44,4.54-11.44,6.31-1.26.56-2.06,2.18-3.07,3.32,2.63,1.61,1.86,6.88,7.14,5.91,4.57-.84,9.05.58,12.85,3.43,2.78,2.09,5.44,4.34,8.16,6.51-.19-1.67-.38-3.34-.55-5.01-.03-.3,0-.61.01-.91.27.4.64.76.79,1.2.64,1.88,1.21,3.79,1.81,5.68-.43-2.23-.78-4.49-1.32-6.7-.31-1.26-1.14-2.4-1.36-3.66-.17-.95.26-2,.43-3,.65.45,1.31.9,1.96,1.36ZM68.21,52.59c.15-.81.45-1.62.43-2.42-.09-3.14,4.31-8.08.89-8.81-7.17-1.53-17.56-6.14-18.19,8.37-.08,1.78-1.67,3.49-2.56,5.24.44-1.61.83-3.23,1.33-4.81.45-1.42,1.79-3.12,1.38-4.14-.83-2.03,5.12-5.53-.83-5.77-3.33-.13-5.43,3.49-5.48,6.82-.05,3.02,1.08,6.07,1.68,9.1-1.26,1.08-2.89,2.02-1.66,4.11.34.27.69.55,1.03.82-2.55,1.15-1.24,3.32-.74,4.7.28.76,2.47.81,3.8,1.18-.1.29-.21.58-.31.86.68-.09,1.37-.18,2.05-.27,2.83-.48,1.53-2.81,1.96-4.36,2.18,2.98,5.33.83,7.95,1.51.25.89.5,1.77.74,2.66.32-.29.64-.58.96-.86,2.1.11,4.2.32,6.28.23.28-.01.95-1.97.69-2.2-3.08-2.75-1.1-6.31-1.69-9.43l.28-2.52ZM43.98,156.89l.38.42c-.22.59-.44,1.17-.66,1.76.41-.42.83-.83,1.21-1.27,2.82-3.22,6.32-3.77,9.86-1.77,4.07,2.3,5.18,6.03,3.38,10.38-1.51,3.63-4.58,4.96-8.31,4.88-.89-.02-1.77-.65-2.67-.97-.02,0-.17.38-.26.58,1.54.39,3.07.89,4.64,1.13.78.12,1.62-.24,2.44-.38-.16.38-.21.98-.49,1.11-.87.41-1.81.64-2.73.94,2.42,1.52,4.84,3.04,7.26,4.57-.46-.51-.93-1.03-1.39-1.54.59.02,1.22-.09,1.77.07,6.53,1.84,13.44,6.07,19.47,5.05,9.27-1.58,20.14-.43,27.04-10.24,4.19-5.97,11.05-10.06,13.02-17.7.44-1.72.14-3.63.18-5.45-.46,1.3-.93,2.59-1.37,3.9-8.06,24.23-37.93,35.43-59.25,22.16-.94-.58-1.55-1.69-2.31-2.56.95.07,2.08-.17,2.83.26,9.97,5.69,20.43,7.04,31.35,3.43,2.7-.89,5.16-2.52,7.73-3.81-2.42.93-4.83,1.87-7.26,2.76-.72.26-1.5.35-2.26.51.11-.15.18-.36.32-.45,5.53-3.28,11.06-6.54,16.59-9.81.21.14.43.28.64.42.16.07.43.23.47.18,4.08-4.3,6.72-9.45,8.6-14.99.35-1.02,1.78-2.5-.43-3.37-2.09-.81-2.85.48-3.33,2.1-2.84,9.48-9.44,15.7-17.89,20.08-8.31,4.31-17.41,4.26-26.47,3.89-3.08-.12-3.02-2.57-2.7-4.69.11-.73,1.27-1.3,1.95-1.94-.2,1.15-.51,2.29-.55,3.45-.02.55.48,1.12.77,1.67,0,.01.35-.16.54-.24-2.5-5.34,2.95-4.34,4.89-6.15.6-.56,1.1-1.23,1.64-1.85-3.33-2.36-4-8.89-10.36-6.57-1.29.47-3.78,1.06-3.89.82-1.74-4.09-6.72-2.22-9.31-5.77-6.58-9.04-7.43-17.77-1.72-27.29.67-1.11.86-2.5,1.28-3.76-1.03.4-2.06.8-3.08,1.2l-.6-.41c-.04-.17-.09-.34-.13-.5-.19.17-.51.31-.55.51-1.73,7.91-3.3,15.83-2.19,24,.08.61,0,1.23,0,1.85-.17-.14-.42-.24-.49-.41-.62-1.63-1.21-3.28-1.81-4.92.34,1.94.5,3.93,1.07,5.79.92,3.04,2.1,5.99,3.17,8.99ZM109.67,28.97c.12,6.4,3,9.83,7.4,11.7,4.82,2.04,9.4.64,12.78-3.18,2.77-3.13,3.67-7.02,1.94-11.12-.27-.64-.87-1.14-1.32-1.7-.3.34-.86.69-.84,1.01.05.87.33,1.73.54,2.58.17.68.37,1.35.55,2.03-.58-.14-1.56-.13-1.7-.45-3.29-8.14-8.85-5.91-14.59-3.37-.48.21-1.43-.63-2.16-.98.31-.62.48-1.4.97-1.81.42-.34,1.39-.03,1.78-.38.83-.75,1.31-2.15-.28-2.14-.98,0-2.27,1.4-2.86,2.47-1.09,2.01-1.77,4.24-2.21,5.34ZM23.5,48.28c.11-1.74,5.18,1.16,2.31-3.22,3.19,1.78,1.68-6.01,5.64-2.79.1.08,1.05-.53,1.01-.68-.77-3.12-1.62-6.21-2.46-9.31-5.37,2.41-1.22-1.9-1.93-2.62-2.73-2.81-4.06.97-4.64,1.91-2.47,4.02-6.16-9.18-9.13,1.23-1.28,4.47-1.96,7.39.08,10.97,1.87,3.27,5.75,2.98,9.1,4.51ZM125.84,62.37c-1.15-.83-2.35-2.43-3.44-2.36-4.66.32,1.35-6.69-3.32-5.05-4.92,1.73-7.53,7.45-12.99,8.77-5.49,1.33-3.66,4.36-2,7.7,1.18,2.37,3.97,2.62,5.04,2.31,1.86-.54-.83-2.16-.58-3.03,1.02-3.66,3.26,3.4,4.51-.39.02-.05-.04-.12-.06-.18-1.53-4.86,3.29-5.31,5.23-5.46,3.65-.29,7.47-2.95,11.19-.22.46-.8,1.47-1.8,1.28-2.38-1.15-3.33-3,.79-4.85.29ZM31.69,74.38c.41-.29,1.27-.63,1.65-1.26.26-.42.07-1.61-.31-1.85-3.03-1.9.19-3.49.33-5.15.09-.99,1.58-1.63,3.04-.75.61.36,2.28.21,2.44-.17.77-1.74,1.18-3.64,1.72-5.48-.98-.13-2.03-.08-2.94-.42-4.06-1.5-4.72,3.71-8.56,4.12-3.44.36-12.84-.47-7.74,8.34.85,1.46.6,6.36,4.82,5.43,1.91-.42,2.34-3.65,5.55-2.81ZM111.58,81.7c-5.14-.07-6.13,3.56-5.5,7.32.34,2.04,1.53,5.09,4.63,5.08,1.49,0,2.94-1.25,4.48-1.55.39-.07,1.06,1.34,1.6,2.07,1.36-1.19,3.7-2.22,3.93-3.6,1.15-6.92-2.66-9.54-9.14-9.33ZM125.21,107.78c-.6-2.17-.8-3.04-.85-3.04-3.79.67-5.01.24-1.51-2.95.75-.69-2.64-2.21-.03-3.47-.46-.36-1.26-1.08-1.32-1.02-1.63,1.55-3.72,2.92-4.62,4.85-1.64,3.49-5.06-2.52-6.19,1.49-.15-.28-.27-.59-.47-.84-.39-.49-.73-1.13-1.25-1.37-.6-.28-1.37-.19-2.07-.26.36.64.62,1.36,1.09,1.91,2.56,2.99,5.26,5.86,7.74,8.91,1.22,1.5,1.93,4.59,3.14,4.73,4.98.59-.74-2.86,1.17-3.84.64-.33.97-1.39,1.59-1.58,2.74-.81,4.25-2.16,3.57-3.53ZM95.22,24.86c-2.06-.16-3.32.83-2.36,2.16,1.81,2.51.7,4.68.18,7.08-.27,1.27-.18,2.73.15,4,.62,2.39,2.03,4.62,4.44,1.97,1.9-2.09,2.62-5.25,3.89-7.77,1.89-3.75-2.8-.02-3.7-1.5-.48-.79-.92-2.06-.61-2.8,1.11-2.67.16-3.46-2-3.15ZM119.26,144.02c.51-.26.94-.48,1.37-.7-.4-.61-.8-1.23-1.21-1.84-4.03-5.92-10.75-2.98-16.06-4.75-1.05-.35-2.92-2.04-3.92.14-1.1,2.41,1.34,2.09,2.47,2.76.47.28.91.62,1.36.93-.59.02-1.2-.05-1.75.09-.42.11-.76.49-1.14.75.29.27.63.81.87.77,6.15-.98,12.27-1.74,18,1.85ZM43.54,101.52c-1.18-1.82-2.14-3.3-3.1-4.78-1.99,4.47-8.88,2.25-10.08,7.34-.2.83,2.94,3.57,3.56,3.29,3.22-1.46,6.12-3.62,9.63-5.85ZM66.65,140.41c.84,2.58,1.85,5.64,2.85,8.7,3.45-2.12,5.87-5.26,5.59-9.17-.06-.87-4.95-1.4-7.64-1.98-.06-.01-.38,1.14-.8,2.46ZM93.8,125.95c-.92.38-2.59.57-2.8,1.24-.49,1.52,1.03,1.73,2.21,2.21,1.16.47,2.41,1.29,3.07,2.32,1.82,2.84,4.81,1.76,7.25,2.47.22.06.62-.5.94-.77-1.89-1.44-3.69-3.02-5.71-4.25-1.46-.89-3.21-1.3-4.83-1.93,1.88.37,3.93.4,5.61,1.19,2.06.97,3.83,2.58,5.72,3.92-1.68-3.45-4.82-4.68-8.27-5.45-.99-.22-1.95-.57-3.18-.94ZM64.36,75.72c-2.57-.22-5.15,1.01-4.99,4.09.05.95,3.92,2.36,6,2.28,1.23-.05,3.17-2.51,3.33-4.03.2-1.9-1.94-2.52-4.35-2.33ZM28.93,185.32c11.11.53,8.25-7.91,9.93-13.03,1.3-3.96,1.81-8.17,2.68-12.27-2.81,3.93-3.43,8.57-4.31,13.13-.97,5,.61,11.76-7.95,11.54-.83-.02-1.66-.11-2.49-.17,1.04.39,2.08.77,2.15.8ZM29.94,182.76c3.6.35,5.54-.71,5.5-4.34-.02-1.91-1.31-1.7-2.23-1.43-2.62.77-5.5,1.94-6.06,4.72-.41,2.03,2.08.69,2.79,1.05ZM26.48,108.32c-2.32,1.36-4.73,2.94-5.56,6.13,2.66-.08,5.35.06,7.94-.39.63-.11,1.24-2.09,1.33-3.25.16-2.23-1.79-2.04-3.71-2.5ZM128.12,149.5c.1-4.58-14.11-17.88-18.32-17.38-.15.02-.28.17-.41.26.28.3.53.64.85.89,6.19,4.88,14.28,7.73,17.16,16.14.08.24.4.39.6.58.06-.24.12-.49.12-.49ZM18.8,50.24c-.95.87-2.3,2.11-3.65,3.35,2.05,1.38,4.03,2.86,6.2,4.02.35.19,1.48-1.07,2.25-1.66-1.93-1.56.1-5.97-4.8-5.71ZM51.02,165.02c2.07,2.22,1.17-3.93,3.59-1.33.41-2.65-.9-4.18-3.38-4.33-2.4-.14-4.01,1.25-4.06,3.77-.06,2.83,1.91,2.31,3.85,1.89ZM92.31,152.72c4.59.19,7.55-.35,10.08-2.37.57-.45.96-1.14,1.43-1.72-.58.35-1.13.74-1.73,1.03-1.1.52-2.23.98-3.35,1.47.41-.6,1.31-1.5,1.15-1.76-2.71-4.47-4.18,1.15-6.44.86-1.54-.2-3.16-.16-3.37,1.8-.02.24,2.33.73,2.23.7ZM35.31,20.36c-.68.07-.86.09-1.04.11,1.17,1.27,2.53,2.41,3.49,3.83,2.46,3.61,4.73.21,7.08-.04-3.31-1.35-6.62-2.7-9.53-3.89ZM128.3,50.47c-.48,1.78.63,3.18,2.11,3.16,3.11-.05,2.59-3.05,3-4.98.12-.56-1.94-2.28-2.21-2.12-1.42.83-3.43,1.49-2.9,3.94ZM124.56,150.68c.36-.4,1.37-1.2,1.25-1.46-.78-1.69-1.81-3.27-2.76-4.88-1.04.93-2.92,1.83-2.94,2.79-.05,2.27,1.97,3.09,4.45,3.56ZM12.98,47.34c-2.19-3.24-2.7-3.99-3.2-4.74-.32.6-1.02,1.32-.88,1.79.96,3.19,2.09,6.33,3.16,9.48,2.49-3.29,1.42-6.13.93-6.53ZM55.85,82c.03,3.75,1.77,5.98,4.38,7.68.19-.32.6-.68.54-.96-.57-3.01-1.57-5.81-4.13-7.77-.34.45-.68.9-.79,1.05ZM77.98,76.77c1.1.88,1.7,1.76,2.34,1.79,1.45.07,3.25-.39,3.04-2.17-.18-1.52-1.36-2.92-2.09-4.37-.99,1.43-1.99,2.87-3.28,4.74ZM61.68,135.83c-.26.64-.92,1.44-.75,2.01.62,2.12,1.5,4.15,2.29,6.22.1-.23.3-.47.29-.7-.11-2.07-.26-4.14-.39-6.2.03.04.09.08.08.12,0,.06-.03.16-.07.18-2.29.95-.31-1.5-1.45-1.63ZM86.41,143.41c-.15.41.35-.6.5-1.65.03-.23-1.23-.97-1.81-.88-.95.14-1.87,1.13-2.74,1.05-.59-.05-1.08-1.31-1.61-2.03-.14.22-.45.56-.39.65,1.01,1.54,2.01,3.12,6.04,2.86ZM108.78,37.99c-1.4-.98-2.31-1.89-3.39-2.23-.41-.13-1.73,1.01-1.78,1.63-.1,1.55.85,2.71,2.54,2.59.61-.04,1.16-.84,2.62-1.99ZM59.53,75.19c-1.71-.61-2.85-1.1-4.04-1.37-.32-.07-.8.55-1.21.86.9,1.18,1.79,2.35,2.69,3.53.67-.79,1.34-1.59,2.55-3.02ZM112.22,20.69c-.25-.01-.62-.14-.91-.03-1.85.7-3.24,1.87-3.39,3.97-.03.44.53.93.82,1.4,1.14-1.75,2.28-3.5,3.48-5.34ZM107.63,137.09c.94-.64,1.71-1.16,2.49-1.69-.86-.63-1.75-1.8-2.57-1.75-.92.05-1.79,1.19-2.68,1.86.84.48,1.68.96,2.77,1.58ZM85.05,147.2c-.96.26-1.69.45-2.41.65.87.81,1.73,1.62,2.6,2.42.54-.72,1.07-1.44,1.61-2.17-.62-.31-1.24-.63-1.8-.91ZM38.16,153.78c.4.48,1.48,1.77,2.56,3.05.13-.17.42-.41.37-.51-1.1-2.78-2.23-5.54-3.36-8.3.11,1.54.23,3.08.42,5.76ZM22.72,98.45c.98.94,1.75,1.68,2.52,2.41.15-.21.47-.48.42-.61-.45-1.16-.97-2.29-1.47-3.43-.38.42-.76.83-1.47,1.62ZM13.54,60.11c.55-1.63.96-2.54,1.11-3.49.03-.21-.91-.89-1.24-.79-.8.24-1.5.81-2.25,1.25.36.46.72.92,2.38,3.03ZM127.63,103.94c-.54-.83-.91-1.41-1.29-2-.4.43-1.17.92-1.11,1.26.12.61.74,1.12,1.15,1.67.36-.27.72-.54,1.25-.93ZM84.36,77.68c.36.17.97.49.98.47.59-1.07,1.16-2.15,1.65-3.27.04-.09-.43-.4-.66-.61-.62,1.07-1.24,2.13-1.97,3.41ZM36.33,159.7c.72,1.01,1.24,1.74,1.77,2.48.36-.8.91-1.59.99-2.42.04-.37-.83-.98-1.39-1.19-.24-.09-.75.6-1.37,1.13ZM42.51,161.69c-.12,1.91-.41,2.8-.16,3.5.3.86,1.05,1.56,1.61,2.33-.33-1.34-.65-2.68-.98-4.02-.06-.25-.13-.51-.48-1.81ZM101.42,82.59c-.2-.18-.36-.33-.52-.48-.4,1.03-.81,2.06-1.18,3.1-.03.09.24.28.37.43.43-.98.86-1.96,1.33-3.05ZM56.12,90.11c-.35-.45-.65-.84-.94-1.22-.22.36-.65.74-.61,1.06.08.58.45,1.12.7,1.68.25-.45.51-.91.85-1.52ZM63.69,85.32c.34-.46.57-.78.81-1.1-.44-.32-.85-.77-1.35-.92-.29-.09-.73.29-1.1.46.49.47.99.94,1.64,1.56ZM84.85,80.63c-.52-.56-.93-1-1.35-1.44-.15.25-.5.62-.43.73.27.44.66.83,1.06,1.17.06.05.44-.28.72-.47ZM78.6,34.28c-.48-.89-.9-1.66-1.31-2.42-.05.24-.21.54-.12.72.33.74.73,1.44,1.1,2.15.11-.16.23-.31.33-.45Z"/>
  <path class="cls-2" d="M73.84,86.15c1.07,3.81,2.9,7.57.61,11.55.2.09.51.31.58.25,1.26-1.08,2.91-1.96,3.64-3.33,2.49-4.67,4.12-9.62,7.79-13.83,4.12-4.73,6.7-.1,7.13,1.44.82,2.93,2.38,5.63,2.32,9.4-.07,4.78-.83,8.06-3.19,11.99-4.55,7.6-11.52,12.57-17.89,18.25-1.08.96-1.64,2.5-2.43,3.77,2.2.4,4.38.94,6.6,1.17,7.09.74,12.43,5.19,18.11,8.77.73.46.14,3.36-.25,5.03-.11.46-1.81.93-2.66.77-9.54-1.82-19.19-3.27-28.53-5.84-6.14-1.69-4.36-7.28-3.63-11.86.16-.99.38-1.96.54-2.95,0-.02-.65-.26-.74-.16-1.05,1.19-2.09,2.41-3.04,3.68-.16.21.11.74.19,1.12-.19,1.11-.38,2.22-.57,3.33-2.26.5-5.75,1.14-5.69-1.47.06-2.34-3.75-5.61.74-7.53.18-.08.21-.52.31-.8-4.39-.11-8.83-.57-13.15-.05-1.03.12-1,3.41-.16,5.47,3.37,8.23-1.86,14.85-4.49,21.9-1.04,2.77.51,7.66-5.37,7.13-1.24-.11-1.72-.24-1.7-1.25.24-9.15.55-18.29.83-27.44.17-.13.35-.26.52-.38-.18-.04-.35-.08-.53-.12-.08-12.25,8.16-20.93,22.09-23.7,2.01-.4,4.36-1.37,4.65-4.43.18-1.87.96-4.03,3.86-3.25,6.56,1.76,9.96-2.71,13.47-6.93.04.1.05.21.04.32ZM68.51,106.45c-.4-.81-.85-1.59-1.19-2.43-.41-1.04-.72-2.11-1.08-3.17-.15,1.87-.48,3.75-.38,5.6.06,1.12.81,2.2,1.25,3.3.48-1.08.96-2.17,1.44-3.25.05-.06.09-.13.14-.19-.06.05-.12.1-.19.14Z"/>
  <path class="cls-2" d="M60.94,64.72c-2.62-.68-5.77,1.48-7.95-1.51-.43,1.56.87,3.89-1.96,4.36-.11-.6-.23-1.19-.34-1.79-.46.4-.93.8-1.39,1.19-1.33-.37-3.52-.42-3.8-1.18-.51-1.37-1.81-3.54.74-4.7-.34-.27-.69-.55-1.03-.82.86-1.24,3.32-1.84,1.66-4.11-.61-3.03-1.73-6.08-1.68-9.1.05-3.33,2.15-6.95,5.48-6.82,5.94.23,0,3.74.83,5.77.42,1.02-.93,2.71-1.38,4.14-.5,1.59-.89,3.21-1.33,4.81.89-1.74,2.48-3.46,2.56-5.24.63-14.51,11.02-9.9,18.19-8.37,3.42.73-.98,5.67-.89,8.81.02.8-.28,1.61-.43,2.41-.3.71-.55,1.45-.91,2.14-.9,1.72-1.84,3.41-2.76,5.12,2.3,1.1,1.78-1.55,2.8-2.21.52-.34.41-1.65.59-2.52.59,3.12-1.39,6.69,1.69,9.43.26.23-.41,2.19-.69,2.2-2.09.09-4.19-.12-6.28-.23-.06-.15-.13-.29-.19-.44.41-.71.96-1.37,1.17-2.14.14-.52-.19-1.17-.31-1.77-.5.61-1,1.23-1.5,1.84-.29.24-.58.48-.88.71ZM51.06,61.64c-.24-.43-.55-.99-.86-1.56-.44.25-.88.49-1.33.74.58.85,1.17,1.7,1.75,2.56.12-.49.25-.98.44-1.74Z"/>
  <path class="cls-2" d="M82.82,64.6c-2.28,1.55-1.36,5.47-4.64,6.27-1.96-.12-3.93-.24-5.9-.36,2.13-7.6-6.3-14.35-1.8-22.15h.01c2.31-9.54,7.14-7.6,12.7-2.87.52.45,1.57.27,2.38.39-.01.76-.02,1.51-.03,2.27.02.81.04,1.61.07,2.42-.93,4.68-1.85,9.35-2.78,14.03Z"/>
  <path class="cls-2" d="M56,9.28c2.37,1.36,4.47-1.4,7.28-.06,3.04,1.45,5.15,2.37,3.58,6.08,4.3,1.51-3.65,11.24,6.15,9.14,1.53-.33,2.25,1.03,1.28,2-3.54,3.56-1.24,13.47-9.77,10.85-3.71-1.14-5.96-7.04-8.86-10.78-.59-.76-1.38-1.46-1.72-2.33-.62-1.62-.97-3.35-1.44-5.03,1.81,1.13,4.03,1.91,5.31,3.47,1.72,2.1,3.47.98,5.25.87.16-.01.53-.96.38-1.15-1.21-1.55-.9-5.1-3.62-4.5-11.28,2.48-3.99-5.35-4.95-8.56.38,0,.75,0,1.13.01ZM65.55,28.64c-1.11.49-1.99.88-2.87,1.27,1.09.78,2.09,1.87,3.3,2.18.53.14,1.47-1.34,2.22-2.08-.85-.44-1.7-.88-2.65-1.37Z"/>
  <path class="cls-2" d="M109.67,28.97c.44-1.1,1.12-3.33,2.21-5.34.59-1.08,1.88-2.47,2.86-2.47,1.59-.01,1.1,1.39.28,2.14-.39.35-1.36.04-1.78.38-.49.4-.66,1.19-.97,1.81.73.35,1.68,1.19,2.16.98,5.74-2.53,11.3-4.77,14.59,3.37.13.33,1.11.31,1.7.45-.18-.68-.38-1.35-.55-2.03-.21-.86-.49-1.72-.54-2.58-.02-.32.55-.67.84-1.01.45.56,1.05,1.06,1.32,1.7,1.73,4.1.83,7.99-1.94,11.12-3.39,3.82-7.97,5.22-12.78,3.18-4.4-1.87-7.28-5.29-7.4-11.7Z"/>
  <path class="cls-2" d="M23.5,48.28c-3.35-1.53-7.23-1.24-9.1-4.51-2.04-3.58-1.36-6.5-.08-10.97,2.97-10.41,6.66,2.79,9.13-1.23.58-.95,1.91-4.72,4.64-1.91.71.73-3.44,5.03,1.93,2.62.84,3.1,1.69,6.19,2.46,9.31.04.15-.91.76-1.01.68-3.96-3.22-2.45,4.57-5.64,2.79,2.86,4.38-2.21,1.48-2.31,3.22ZM24.16,37.76c.72-1.03,1.46-1.62,1.46-2.22,0-.55-.8-1.09-1.24-1.64-.59.58-1.39,1.07-1.69,1.78-.14.31.71,1.05,1.47,2.08ZM21.33,39.21c-1.1-.76-1.6-1.37-2.13-1.39-.44-.02-.91.67-1.36,1.04.37.42.69,1.13,1.11,1.19.54.08,1.15-.37,2.39-.84ZM24.22,42.87c1.08-1.49,1.64-1.93,1.66-2.4.01-.35-.87-1.09-1.01-1.02-.54.29-1.16.76-1.34,1.31-.14.42.32,1.05.69,2.11ZM17.59,35.33c.5-.61.92-.9.96-1.23.04-.3-.34-.66-.54-.99-.3.26-.76.48-.87.81-.09.29.2.71.44,1.42Z"/>
  <path class="cls-2" d="M111.58,81.71c6.47-.23,10.28,2.4,9.13,9.31-.23,1.38-2.56,2.41-3.93,3.6-.54-.73-1.22-2.15-1.6-2.07-1.54.3-2.99,1.54-4.48,1.55-3.1.01-4.29-3.04-4.63-5.08-.63-3.76.36-7.39,5.51-7.31ZM113.58,89.52c-.51-.44-.81-.9-1.12-.91-.31-.01-.65.41-.97.65.3.34.54.81.92.98.19.09.62-.37,1.17-.72Z"/>
  <path class="cls-2" d="M119.26,144.02c-5.74-3.59-11.85-2.83-18-1.85-.24.04-.58-.5-.87-.77.38-.26.72-.64,1.14-.75.56-.14,1.17-.07,1.75-.09-.45-.31-.89-.65-1.36-.93-1.13-.67-3.58-.35-2.47-2.76,1-2.18,2.87-.49,3.92-.14,5.3,1.76,12.02-1.17,16.06,4.75.41.61.81,1.23,1.21,1.84-.43.22-.85.44-1.37.7Z"/>
  <path class="cls-2" d="M31.78,163.45c.11-2.6-.05-5.26.46-7.78.17-.84,2.57-1.17,2.69.38.43,5.61,2.66,11.25.12,16.89-.15-.53-.3-1.07-.46-1.6-1.29,2.24-1.9,2.17-1.74-.51,1.53-2.73.68-5.12-1.07-7.38Z"/>
  <path class="cls-2" d="M64.36,75.72c2.41-.18,4.54.43,4.35,2.33-.16,1.53-2.1,3.99-3.33,4.03-2.08.08-5.95-1.33-6-2.28-.16-3.07,2.42-4.31,4.99-4.09Z"/>
  <path class="cls-2" d="M91.6,54.19c-.75-5.17-2.11-10.02-7.07-12.88.44-.3.87-.6,1.31-.9.38.15.76.31,1.13.46,0,0,.03.02.03.02.12.12.25.25.37.37,0,0,.01.01.01.01,4.05,5.52,6.06,11.74,6.37,18.55.25,3.45,2.71,6.89.07,10.35,0-1.34,0-2.67,0-4.01-.27,1.31-.52,2.61-.81,3.92-.45,2.1-.92,4.19-1.39,6.29.29-5.33.69-10.65.81-15.98.05-2.06-.55-4.14-.85-6.22Z"/>
  <path class="cls-2" d="M88.36,71.73c.89-8.1,2.91-16.23-.61-24.23-.06-.13.29-.43.46-.66.43.91.91,1.8,1.28,2.74.45,1.15.81,2.33,1.21,3.5-.04,2.6-1.08,5.81.07,7.68,2.42,3.96-.33,7-.55,10.43-.07,1.08-.21,2.15-.32,3.22-.51-.89-1.02-1.79-1.53-2.68Z"/>
  <path class="cls-2" d="M85.96,60.05c.97-3.53,2.15-7.05.67-10.74-.09-.23.1-.57.15-.85.29.39.64.75.85,1.19,3.37,7.03.18,14.05-.03,21.08-.55-3.56-1.09-7.12-1.64-10.68Z"/>
  <path class="cls-2" d="M75.53,22.12c-4.05-1.94,1.08-5.4-1.27-7.62.05-.03.09-.07.14-.1-.05.02-.09.04-.14.07,0,0-.04-.04-.04-.04.08-.54.15-1.08.23-1.63-.52-1.35-1.05-2.7-1.57-4.05.24-.16.47-.32.71-.48.15.14.3.27.45.41,0,0-.01-.02-.01-.02.67,1.73,1.35,3.47,2.03,5.2.02.05.21.05.32.05.02,0,.04-.12.05-.18.42-.14.84-.28,1.26-.41.2,1.78.41,3.57.61,5.35-1.28-2.3-.07,3.51-1.58.49-.4.99-.8,1.97-1.2,2.96Z"/>
  <path class="cls-2" d="M60.77,72.46c-2.22-.31-4.45-.56-6.64-1-.44-.09-.86-.89-1.03-1.45-.06-.19.82-.97,1.06-.89,3.04,1.04,7.13-2.79,9.35,1.97-.91.45-1.83.91-2.74,1.36Z"/>
  <path class="cls-2" d="M74,76.42c-.76,3.33-1.51,6.67-2.27,10-.42-2.25-.85-4.51-1.27-6.76.06-.09.1-.19.1-.3,1.15-.98,2.3-1.96,3.45-2.94Z"/>
  <path class="cls-2" d="M76.4,74.43c.36-.37.71-.75,1.07-1.12.25.45.76.93.71,1.34-.49,3.94-1.08,7.87-1.63,11.8-.05-4.01-.1-8.01-.15-12.02Z"/>
  <path class="cls-2" d="M77.98,76.77c1.3-1.87,2.29-3.31,3.28-4.74.74,1.45,1.91,2.85,2.09,4.37.21,1.77-1.59,2.23-3.04,2.17-.64-.03-1.24-.91-2.34-1.79Z"/>
  <path class="cls-2" d="M78.15,38.53c.21.58.41,1.16.62,1.73-1.25-.09-2.89.29-3.67-.36-1.93-1.61-3.84-3.6-2.73-6.54.18-.48,1.25-.62,1.91-.92-.62,3.24-.53,6.03,3.87,6.08Z"/>
  <path class="cls-2" d="M86.62,51.75c-.47,3.93-.94,7.87-1.41,11.8-.11.12-.23.23-.34.35-.06,1.61-.11,3.22-.17,4.83-2.42.31-1.78-1.34-1.69-2.63.92-4.77,1.85-9.55,2.78-14.33.28,0,.55-.02.83-.02Z"/>
  <path class="cls-2" d="M59.53,75.19c-1.21,1.43-1.88,2.23-2.55,3.02-.9-1.18-1.79-2.35-2.69-3.53.41-.31.88-.93,1.21-.86,1.19.26,2.32.76,4.04,1.37Z"/>
  <path class="cls-2" d="M94.86,47.39c.97,4.87,1.95,9.74,2.88,14.62.08.43-.2.93-.31,1.39-.2-.45-.5-.88-.6-1.36-1.02-4.81-2-9.64-2.99-14.46.34-.07.68-.13,1.02-.2Z"/>
  <path class="cls-2" d="M71.71,75.79c-.24-.3-.43-.7-.74-.88-1.52-.9-5.52.78-4.57-1.44,1.18-2.76,4.22-.99,5.85,1.35-.18.32-.36.65-.54.97Z"/>
  <path class="cls-2" d="M51.92,75.68c-.63-1.97-1.26-3.95-1.89-5.92.51,0,1.44-.08,1.46.03.4,1.93.69,3.89,1.01,5.84-.19.02-.38.04-.57.05Z"/>
  <path class="cls-2" d="M96.63,66.27c2.25,2.4.44,4.69-.19,7.01-1.27-2.37-1.57-4.72.19-7.01Z"/>
  <path class="cls-2" d="M79.88,28.94c-.2-.04-.41-.07-.61-.11.07.92.13,1.83.2,2.75-.12-.05-.25-.05-.37,0-.38-2.18-.76-4.37-1.13-6.55.14,0,.39-.04.41.02.51,1.29,1.01,2.6,1.5,3.9Z"/>
  <path class="cls-2" d="M94.04,53.65c-.91-2.94-1.82-5.88-2.73-8.82,2.47,2.42,2.87,5.67,3.56,8.81-.28,0-.55,0-.83.01Z"/>
  <path class="cls-2" d="M67.36,3.59c-1.25.95-2.5,1.9-3.74,2.84.01-.29-.06-.62.04-.88.66-1.68,1.54-3.01,3.68-1.99l.02.02Z"/>
  <path class="cls-2" d="M84.22,35.43c-1.2-1.71-2.39-3.42-3.59-5.13,1.2,1.71,2.39,3.42,3.59,5.13Z"/>
  <path class="cls-2" d="M69.85,6.98c-1.38-.38-2.76-.76-4.15-1.13,1.08-.18,2.16-.36,3.24-.54.69.26,1.38.53,2.07.79-.39.29-.78.59-1.16.88Z"/>
  <path class="cls-2" d="M70.88,15.77c-.59-1.44-1.19-2.87-1.78-4.31.59.71,1.19,1.42,1.78,2.14.59.78,1.17,1.56,1.76,2.34-.12.11-.23.22-.35.33-.48-.17-.95-.35-1.43-.52,0,0,.02.02.02.02Z"/>
  <path class="cls-2" d="M63.69,85.32c-.65-.62-1.14-1.09-1.64-1.56.37-.17.81-.55,1.1-.46.5.15.9.6,1.35.92-.24.32-.47.64-.81,1.1Z"/>
  <path class="cls-2" d="M91.3,44.82c-.85-.91-1.71-1.82-2.56-2.73.36-.05.71-.09,1.07-.14.5.96.99,1.91,1.49,2.87Z"/>
  <path class="cls-2" d="M85.57,38.11c-.19-.64-.39-1.27-.58-1.91.79.78,1.58,1.56,2.37,2.35h.01c-.6-.15-1.2-.29-1.8-.43Z"/>
  <path class="cls-2" d="M78.6,34.28c-.11.14-.22.3-.33.45-.37-.72-.78-1.42-1.1-2.15-.08-.19.08-.48.12-.72.42.77.83,1.53,1.31,2.42Z"/>
  <path class="cls-3" d="M83.08,162.66c.52-.66,1.04-1.31,1.56-1.97,0,0-.03-.03-.03-.03-.52.66-1.04,1.31-1.56,1.97,0,0,.03.03.03.03Z"/>
  <path class="cls-3" d="M79.11,31.57c.12-.04.25-.04.37,0,.28.62.56,1.23.83,1.85,0,0-.01.01-.01.01-.4-.62-.79-1.24-1.19-1.86Z"/>
  <path class="cls-3" d="M29.74,124.14c.18.04.35.08.53.12-.17.13-.35.26-.52.38,0-.17,0-.34,0-.51Z"/>
  <path class="cls-3" d="M86.97,40.88c-.38-.15-.76-.31-1.13-.46.38.15.76.31,1.13.46Z"/>
  <path class="cls-2" d="M70.48,48.36c-.18-.13-.36-.27-.55-.4.04-.04.09-.09.13-.13.14.17.29.35.43.52,0,0-.01.01-.01.01Z"/>
  <path class="cls-3" d="M77.85,37.36c-.23-.26-.47-.53-.7-.79.23.26.47.53.7.79Z"/>
  <path class="cls-3" d="M85.05,160.3c.02-.12.03-.25.05-.37.06.03.13.06.19.09-.09.08-.18.17-.26.25,0,0,.03.03.03.03Z"/>
  <path class="cls-3" d="M74.03,8.69c-.15-.14-.3-.27-.45-.41-.03-.13-.01-.26.05-.38h0c.14.27.27.53.41.8Z"/>
  <path class="cls-2" d="M84.61,35.81c-.14-.14-.27-.27-.41-.41.14.14.27.27.41.41Z"/>
  <path class="cls-2" d="M85.01,36.2c-.14-.13-.27-.27-.41-.4.14.13.27.27.41.4Z"/>
  <polygon class="cls-2" points="87.36 38.54 87.45 38.6 87.38 38.53 87.36 38.54"/>
  <path class="cls-3" d="M87.38,41.27c-.12-.12-.25-.25-.37-.37.12.12.25.25.37.37Z"/>
  <path class="cls-3" d="M72.45,8.69c-.13-.13-.26-.26-.39-.39,0,0,0,0,0,0,.13.13.26.26.39.39,0,0,0,0,0,0Z"/>
  <path class="cls-3" d="M73.64,7.9c-.07-.06-.14-.11-.21-.17.04,0,.11,0,.13.02.04.04.05.11.07.17,0,0,0-.01,0-.01Z"/>
  <path class="cls-3" d="M85.02,160.27c-.14.13-.27.26-.41.39,0,0,.03.03.03.03.14-.13.27-.26.41-.39,0,0-.03-.03-.03-.03Z"/>
  <path class="cls-2" d="M67.34,3.57s.05-.07.08-.11c-.02.04-.04.09-.06.13,0,0-.02-.02-.02-.02Z"/>
  <path class="cls-1" d="M68.56,106.5c-.48,1.08-.96,2.17-1.44,3.25-.44-1.1-1.19-2.18-1.25-3.3-.11-1.85.23-3.73.38-5.6.36,1.06.67,2.13,1.08,3.17.33.83.79,1.62,1.19,2.43l.05.05Z"/>
  <path class="cls-1" d="M68.51,106.45c.06-.05.12-.1.19-.14-.05.06-.09.13-.14.19,0,0-.05-.05-.05-.05Z"/>
  <path class="cls-1" d="M77.82,176.81c-6.07.14-10.48-.69-14.59-2.88,3.62.63,7.25,1.27,10.88,1.87.77.13,1.56.06,2.34.11,1.52.1,3.04.21,4.56.32-1.54.28-3.08.55-3.2.57Z"/>
  <path class="cls-1" d="M67.47,158.74c-.75-.16-1.49-.36-2.25-.46-1.47-.2-2.94-.35-4.41-.53.14-.17.33-.51.4-.49,2.19.73,4.83-1.95,6.74.88-.16.2-.31.4-.47.6Z"/>
  <path class="cls-1" d="M109.88,158.3c-.5.54-.91.99-1.32,1.44-.05-.2-.21-.45-.14-.6.25-.53.57-1.03.87-1.54.17.19.33.39.59.7Z"/>
  <path class="cls-1" d="M104.47,164.82c.32-.18.65-.35.97-.53-.11.32-.22.63-.33.95-.21-.14-.43-.28-.64-.42Z"/>
  <path class="cls-1" d="M67.94,158.14c.12.31.24.62.36.93-.28-.11-.55-.22-.83-.33.16-.2.31-.4.47-.6Z"/>
  <path class="cls-1" d="M43.98,156.89c.18-.06.36-.12.54-.18-.05.2-.11.4-.16.6-.13-.14-.25-.28-.38-.42Z"/>
  <path class="cls-1" d="M45.54,121.98c-.13.16-.25.33-.38.49-.18-.15-.37-.29-.55-.44.11-.15.22-.3.33-.46.2.14.4.27.6.41Z"/>
  <path class="cls-1" d="M56.09,176.1s.1-.01.13,0c.03.02.04.08.07.12-.09,0-.18,0-.26,0,.02-.04.05-.08.07-.12Z"/>
  <path class="cls-1" d="M45.15,122.47c-.2.07-.4.14-.59.21.02-.22.03-.43.05-.65.18.15.36.29.55.44Z"/>
  <path class="cls-1" d="M62.45,66.07c-.21-.69-.42-1.38-.64-2.07.5-.61,1-1.23,1.5-1.84.12.59.46,1.25.31,1.77-.21.76-.77,1.43-1.17,2.14Z"/>
  <path class="cls-1" d="M51.06,61.64c-.19.76-.32,1.25-.44,1.74-.58-.85-1.17-1.7-1.75-2.56.44-.25.88-.49,1.33-.74.31.56.62,1.12.86,1.56Z"/>
  <path class="cls-1" d="M97.98,109.64c4.15-4.2,8.76-4.27,12.82-.38,3.34,3.2,3.27,7.45.22,10.96-3.22,3.7-7.4,4.28-11.38,1.31-4.34-3.25-4.45-7.48-1.63-11.92,0,0-.03.03-.03.03ZM104.04,119.04c2.78-.15,4.55-1.32,4.6-4.13.05-2.55-1.43-4.07-3.94-4.18-2.49-.11-4.18,1.2-4.3,3.78-.12,2.5,1.15,4.13,3.64,4.53Z"/>
  <path class="cls-1" d="M95.5,118.77c-2.63-4.25-.29-7.6,2-10.95.21.14.58.28.6.44.04.46-.07.93-.12,1.4,0,0,.03-.03.03-.03-1.82.83-2.7,4.5-2.15,8.9-.12.08-.24.17-.36.25Z"/>
  <path class="cls-1" d="M114.87,121.01c2.38-.41,1.9,1.85,2.46,2.91.6,1.14.5,2.64.71,3.98-.46-.95-.94-1.89-1.37-2.85-.62-1.35-1.21-2.72-1.81-4.08,0,0,.02.04.02.04Z"/>
  <path class="cls-1" d="M87.59,117.68c1.2,1.1,2.41,2.19,3.61,3.29-.43.26-1.21.79-1.25.74-.95-1.21-1.82-2.47-2.7-3.73.11-.1.23-.2.34-.3Z"/>
  <path class="cls-1" d="M87.25,117.98c-.09-.26-.17-.53-.26-.79.2.16.4.32.6.49-.11.1-.23.2-.34.3Z"/>
  <path class="cls-1" d="M95.86,118.52c0,.16.01.32.02.49-.12-.08-.25-.16-.37-.24.12-.08.24-.17.36-.25Z"/>
  <path class="cls-1" d="M85.81,50.32l-.02.19s-.19.05-.19.05c-.02-.81-.04-1.61-.07-2.42.09.72.18,1.45.27,2.17Z"/>
  <path class="cls-1" d="M65.55,28.64c.96.49,1.81.93,2.65,1.37-.75.74-1.69,2.21-2.22,2.08-1.21-.31-2.21-1.4-3.3-2.18.88-.39,1.76-.78,2.87-1.27Z"/>
  <path class="cls-1" d="M24.16,37.76c-.76-1.03-1.61-1.77-1.47-2.08.3-.71,1.1-1.2,1.69-1.78.44.55,1.24,1.09,1.24,1.64,0,.59-.74,1.19-1.46,2.22Z"/>
  <path class="cls-1" d="M21.33,39.21c-1.24.47-1.85.91-2.39.84-.42-.06-.74-.77-1.11-1.19.46-.37.92-1.05,1.36-1.04.53.02,1.03.63,2.13,1.39Z"/>
  <path class="cls-1" d="M24.22,42.87c-.38-1.06-.84-1.69-.69-2.11.18-.54.8-1.02,1.34-1.31.14-.08,1.02.67,1.01,1.02-.02.47-.58.91-1.66,2.4Z"/>
  <path class="cls-1" d="M17.59,35.33c-.24-.71-.53-1.13-.44-1.42.11-.33.56-.54.87-.81.19.33.57.69.54.99-.04.34-.46.62-.96,1.23Z"/>
  <path class="cls-1" d="M49.53,137.88c1.27,4.93,3.05,8.22,6.63,10.28.87.5,1.58,1.25,2.37,1.88-1.08-.32-2.27-.46-3.24-1.01-3.44-1.94-5-5.2-5.88-8.87-.09-.36.03-.77.12-2.28Z"/>
  <path class="cls-1" d="M55.27,140.53c1.02,2.04,1.99,3.96,2.93,5.89.03.05-.28.26-.43.4-.87-1.76-1.77-3.51-2.6-5.29-.12-.26.06-.65.1-1Z"/>
  <path class="cls-1" d="M54.96,137.05c.48-1.12.98-2.3,1.49-3.49.1.25.34.55.28.76-.36,1.34-.8,2.65-1.2,3.98-.16-.35-.31-.69-.57-1.25Z"/>
  <path class="cls-1" d="M113.58,89.52c-.54.35-.98.8-1.17.72-.38-.17-.62-.64-.92-.98.32-.23.66-.66.97-.65.31.01.6.47,1.12.91Z"/>
  <path class="cls-1" d="M81.7,167.85c-.31-.06-.68-.13-1.04-.21.3-.18.57-.45.89-.53,5.38-1.36,10.22-3.86,14.76-7,.38-.26.9-.33,1.35-.49-.28.39-.5.86-.85,1.17-4.32,3.8-9.28,6.25-15.1,7.05Z"/>
  <path class="cls-1" d="M82.82,155.39c-1.32.74-2.25,1.27-3.21,1.76-.03.02-.28-.39-.43-.61,2.19-1.05-.16-2.78.61-4.04.69.66,1.37,1.31,3.03,2.89Z"/>
  <path class="cls-1" d="M72.04,153.22c1.02-.69,2.03-1.38,3.05-2.07.1.1.19.19.29.29-1.02,1.38-2.03,2.76-3.05,4.14-.09-.8-.18-1.6-.26-2.39,0,0-.03.03-.03.03Z"/>
  <path class="cls-1" d="M75.5,150.75c.14-.16.29-.32.43-.48-.05.25-.1.49-.16.74-.1-.08-.19-.17-.27-.27Z"/>
  <path class="cls-1" d="M75.09,151.16c.14-.14.27-.27.41-.41.09.09.18.18.27.27-.13.14-.26.29-.4.43-.09-.1-.19-.19-.29-.29Z"/>
  <path class="cls-1" d="M69.49,145.13c-.13.28-.28.61-.44.93-.29-1.03-.62-2.04-.84-3.09-.06-.27.23-.62.36-.93.3,1,.59,1.99.92,3.09Z"/>
  <path class="cls-1" d="M70.81,147.19c-.4.2-.8.41-1.22.56-.04.01-.22-.36-.34-.55.36-.14.71-.28,1.07-.42.17.14.33.27.5.41Z"/>
  <path class="cls-1" d="M70.31,146.78c.27-.25.54-.51.81-.76.14.11.28.23.42.34-.25.28-.5.55-.74.83-.16-.14-.33-.27-.5-.41Z"/>
  <path class="cls-1" d="M71.5,145.58c.28-.2.57-.4.85-.61-.16.35-.32.69-.47,1.04-.13-.14-.25-.29-.38-.43Z"/>
  <path class="cls-1" d="M71.87,146.01c-.11.12-.22.23-.32.35-.14-.11-.28-.23-.42-.34.12-.15.25-.29.37-.44.13.14.25.29.38.43Z"/>
  <path class="cls-1" d="M85.8,51.77c0-.48,0-.96.01-1.45.27.48.55.95.82,1.43-.28,0-.55.01-.83.02Z"/>
  <path class="cls-1" d="M80.75,119.59c.25.43.49.86.74,1.29-.45-.28-.91-.56-1.36-.83.21-.15.42-.31.63-.46Z"/>
  <path class="cls-2" d="M70.86,15.75c.37.58.73,1.16,1.1,1.75-.15.12-.3.23-.45.35-.64-.9-1.28-1.79-1.92-2.69.43.21.86.41,1.29.62,0,0-.02-.02-.02-.02Z"/>
  <path class="cls-2" d="M73.46,16.72c.2.37.41.74.61,1.11-.3-.25-.61-.51-.91-.76.1-.12.2-.24.3-.35Z"/>
  <path class="cls-2" d="M73.15,17.07c-.29-.27-.57-.53-.86-.8.12-.11.23-.22.35-.33.27.26.54.52.82.78-.1.12-.2.23-.3.35Z"/>
  <path class="cls-2" d="M71.96,17.5c.27.3.53.59.8.89-.14.08-.29.16-.43.24-.27-.26-.54-.52-.81-.78.15-.12.3-.23.45-.35Z"/>
  <path class="cls-2" d="M72.76,18.38c.04.17.09.34.13.51-.19-.09-.37-.18-.56-.27.14-.08.29-.16.43-.24Z"/>
  <path class="cls-1" d="M74.27,14.47s.09-.04.14-.07c-.05.03-.09.07-.14.1,0,0,0-.03,0-.03Z"/>
  <path class="cls-1" d="M133.2,49.66c-.5.53-.89.95-1.28,1.36-.2-.36-.66-.83-.56-1.06.19-.45.7-.76,1.07-1.13.21.23.42.46.77.82Z"/>
  <path class="cls-1" d="M80.31,33.43c-.28-.62-.56-1.23-.83-1.85-.07-.92-.13-1.84-.2-2.75.76,1.81,1.53,3.61,2.29,5.42-.42-.27-.84-.55-1.26-.82Z"/>
  <path class="cls-1" d="M82.25,34.63c-.08.1-.15.19-.23.28-.08-.09-.25-.2-.23-.28.02-.11.17-.2.26-.3.07.1.13.19.2.3Z"/>
</svg>